<svg width="21" height="21" viewBox="0 0 21 21" fill="none" xmlns="http://www.w3.org/2000/svg">
<g clip-path="url(#clip0_1457_6855)">
<path d="M6.94676 10.5C6.94676 8.65912 8.43874 7.1664 10.2797 7.1664C12.1207 7.1664 13.6134 8.65912 13.6134 10.5C13.6134 12.3409 12.1207 13.8336 10.2797 13.8336C8.43874 13.8336 6.94676 12.3409 6.94676 10.5ZM5.14461 10.5C5.14461 13.336 7.44358 15.6349 10.2797 15.6349C13.1158 15.6349 15.4148 13.336 15.4148 10.5C15.4148 7.664 13.1158 5.36512 10.2797 5.36512C7.44358 5.36512 5.14461 7.664 5.14461 10.5ZM14.418 5.16152C14.4178 5.82426 14.9548 6.36173 15.6176 6.362C16.2804 6.36227 16.8179 5.82522 16.8181 5.16248C16.8184 4.49974 16.2813 3.96227 15.6186 3.962H15.6181C14.9556 3.96231 14.4186 4.49909 14.418 5.16152ZM6.23954 18.6398C5.26454 18.5954 4.7346 18.433 4.38242 18.2958C3.91552 18.114 3.58239 17.8975 3.23214 17.5478C2.88188 17.198 2.66507 16.8652 2.48411 16.3983C2.34682 16.0463 2.18441 15.5162 2.14009 14.5413C2.09161 13.4872 2.08193 13.1706 2.08193 10.5001C2.08193 7.8296 2.09241 7.51384 2.14009 6.45888C2.18449 5.48392 2.3481 4.95488 2.48411 4.60184C2.66587 4.13496 2.88236 3.80184 3.23214 3.4516C3.58191 3.10136 3.91472 2.88456 4.38242 2.7036C4.73444 2.56632 5.26454 2.40392 6.23954 2.3596C7.29366 2.31112 7.61031 2.30144 10.2797 2.30144C12.9491 2.30144 13.2661 2.31192 14.3211 2.3596C15.2961 2.404 15.8251 2.5676 16.1782 2.7036C16.6451 2.88456 16.9782 3.10184 17.3285 3.4516C17.6787 3.80136 17.8947 4.13496 18.0765 4.60184C18.2138 4.95384 18.3762 5.48392 18.4205 6.45888C18.469 7.51384 18.4787 7.8296 18.4787 10.5001C18.4787 13.1706 18.469 13.4863 18.4205 14.5413C18.3761 15.5162 18.2129 16.0462 18.0765 16.3983C17.8947 16.8652 17.6782 17.1983 17.3285 17.5478C16.9787 17.8972 16.6451 18.114 16.1782 18.2958C15.8262 18.433 15.2961 18.5954 14.3211 18.6398C13.2669 18.6882 12.9503 18.6979 10.2797 18.6979C7.60911 18.6979 7.29334 18.6882 6.23954 18.6398ZM6.15673 0.56056C5.09213 0.60904 4.36466 0.77784 3.72935 1.02504C3.07141 1.28032 2.51443 1.6228 1.95784 2.17848C1.40126 2.73416 1.05965 3.292 0.804358 3.94992C0.557148 4.5856 0.388341 5.31264 0.339859 6.3772C0.290577 7.44344 0.279297 7.78432 0.279297 10.5C0.279297 13.2157 0.290577 13.5566 0.339859 14.6228C0.388341 15.6874 0.557148 16.4144 0.804358 17.0501C1.05965 17.7076 1.40134 18.2661 1.95784 18.8215C2.51435 19.377 3.07141 19.719 3.72935 19.975C4.36586 20.2222 5.09213 20.391 6.15673 20.4394C7.22357 20.4879 7.56391 20.5 10.2797 20.5C12.9955 20.5 13.3364 20.4887 14.4027 20.4394C15.4673 20.391 16.1943 20.2222 16.83 19.975C17.4876 19.719 18.045 19.3772 18.6016 18.8215C19.1581 18.2658 19.499 17.7076 19.755 17.0501C20.0022 16.4144 20.1719 15.6874 20.2195 14.6228C20.268 13.5558 20.2793 13.2157 20.2793 10.5C20.2793 7.78432 20.268 7.44344 20.2195 6.3772C20.1711 5.31256 20.0022 4.5852 19.755 3.94992C19.499 3.2924 19.1573 2.73504 18.6016 2.17848C18.0458 1.62192 17.4876 1.28032 16.8308 1.02504C16.1943 0.77784 15.4673 0.60824 14.4035 0.56056C13.3372 0.51208 12.9963 0.5 10.2805 0.5C7.56471 0.5 7.22357 0.51128 6.15673 0.56056Z" fill="#F4F1E9"/>
</g>
<defs>
<clipPath id="clip0_1457_6855">
<rect width="20" height="20" fill="white" transform="translate(0.279297 0.5)"/>
</clipPath>
</defs>
</svg>
