<svg width="23" height="21" viewBox="0 0 23 21" fill="none" xmlns="http://www.w3.org/2000/svg">
<g clip-path="url(#clip0_1457_6853)">
<path d="M10.755 20.4983C10.7492 20.4992 10.7417 20.4992 10.735 20.4992C10.6709 20.4992 10.6109 20.4792 10.5609 20.4458L10.5617 20.4467C10.3525 20.2825 10.4292 19.8833 10.5175 19.4208C10.5825 19.18 10.62 18.9042 10.62 18.6192C10.62 18.4958 10.6134 18.3742 10.5992 18.2542L10.6009 18.2692C10.5192 17.8683 10.1892 17.5642 9.78088 17.5233H9.77672C9.64088 17.5075 9.52755 17.4933 9.42088 17.4783C8.12005 17.2942 6.94422 16.935 5.85505 16.4225L5.93088 16.4542C5.35172 16.1825 4.86172 15.9017 4.39588 15.5858L4.43505 15.6108C3.95088 15.2842 3.52838 14.945 3.13588 14.5742L3.14088 14.5783C2.75755 14.2167 2.41005 13.8258 2.09838 13.4067L2.08172 13.3825C1.79338 12.9958 1.52838 12.5583 1.30755 12.0958L1.28672 12.0483C0.860882 11.1717 0.612549 10.1417 0.612549 9.05417C0.612549 8.4425 0.690882 7.84917 0.839216 7.28333L0.828382 7.33167C0.988382 6.72 1.20088 6.18583 1.47005 5.68667L1.45088 5.72583C1.74838 5.175 2.07588 4.7 2.44922 4.26417L2.44005 4.275C2.83588 3.80833 3.26255 3.3925 3.72588 3.02L3.74422 3.00583C4.20588 2.63417 4.72338 2.28833 5.27005 1.98833L5.32505 1.96083C5.83505 1.67917 6.43422 1.4125 7.05755 1.1975L7.14005 1.1725C7.70255 0.974167 8.37755 0.800833 9.07172 0.684167L9.14588 0.674167C9.79338 0.563333 10.5384 0.5 11.2992 0.5C12.06 0.5 12.805 0.563333 13.5309 0.685L13.4525 0.674167C14.2209 0.800833 14.8959 0.974167 15.5475 1.19917L15.4584 1.1725C16.1642 1.4125 16.7634 1.67917 17.3342 1.99167L17.2734 1.96083C17.875 2.28833 18.3925 2.63417 18.875 3.02167L18.8542 3.00583C19.3359 3.3925 19.7625 3.80833 20.1475 4.26167L20.1584 4.275C20.5209 4.7 20.8475 5.17583 21.1217 5.68417L21.1434 5.7275C21.3942 6.18667 21.6084 6.72 21.7575 7.28L21.7692 7.33083C21.9067 7.84833 21.9859 8.4425 21.9859 9.055C21.9859 9.90833 21.8325 10.725 21.5517 11.4808L21.5675 11.4325C21.2667 12.2433 20.8692 12.945 20.3784 13.57L20.3909 13.5533C20.3267 13.6458 20.2617 13.7258 20.1917 13.8017L20.1934 13.8L20.1867 13.8075C19.83 14.2308 19.45 14.61 19.0392 14.955L19.025 14.9667C17.6042 16.26 16.0559 17.4825 14.425 18.5925L14.28 18.6858C13.6834 19.1008 12.9825 19.5342 12.2592 19.93L12.1359 19.9917C11.9159 20.1125 11.6484 20.2383 11.3725 20.3483L11.3225 20.3658C11.1567 20.4375 10.9634 20.4858 10.7617 20.4983H10.7567H10.755ZM15.7409 6.54667C15.4334 6.5475 15.185 6.79667 15.1842 7.10333V11.235C15.185 11.5425 15.4342 11.7908 15.7409 11.7917H17.8959C18.2034 11.7908 18.4517 11.5417 18.4525 11.235V11.1883C18.4517 10.8808 18.2025 10.6325 17.8959 10.6317H16.3434V9.75083H17.895C18.2025 9.75 18.4509 9.50083 18.4517 9.19417V9.1475C18.4509 8.84 18.2017 8.59167 17.895 8.59083H16.3434V7.70833H17.895C18.2025 7.7075 18.4509 7.45833 18.4517 7.15167V7.10417C18.4509 6.79667 18.2017 6.54833 17.895 6.5475L15.7409 6.54667ZM10.765 6.53667C10.4575 6.5375 10.2092 6.78667 10.2084 7.09333V11.225C10.2092 11.5325 10.4584 11.7808 10.765 11.7817H10.8117C11.1192 11.7808 11.3675 11.5317 11.3684 11.225V8.75333L13.3967 11.5242C13.41 11.545 13.4234 11.5633 13.4384 11.5808L13.4375 11.58C13.4909 11.6525 13.5642 11.7075 13.6484 11.7392L13.6517 11.74C13.7142 11.7667 13.7867 11.7817 13.8625 11.7817H13.865H13.9117C14.0067 11.7817 14.0967 11.7575 14.1742 11.715L14.1709 11.7167C14.2242 11.6925 14.27 11.6583 14.3067 11.6158V11.615C14.4059 11.515 14.4675 11.3775 14.4675 11.225V11.2242V7.09333C14.4675 6.78583 14.2184 6.53667 13.9109 6.53667H13.8617C13.5542 6.5375 13.3059 6.78667 13.305 7.09333V9.51917L11.2934 6.81833C11.1959 6.64833 11.0167 6.535 10.81 6.53333L10.765 6.53667ZM8.82005 6.53667C8.51255 6.5375 8.26421 6.78667 8.26338 7.09333V11.225C8.26421 11.5325 8.51338 11.7808 8.82005 11.7817H8.86672C9.17422 11.7808 9.42255 11.5317 9.42338 11.225V7.09333C9.42255 6.78583 9.17338 6.5375 8.86672 6.53667H8.82005ZM5.10172 6.53667C4.79422 6.5375 4.54588 6.78667 4.54505 7.09333V11.225C4.54588 11.5325 4.79505 11.7808 5.10172 11.7817H7.25505C7.56255 11.7808 7.81088 11.5317 7.81172 11.225V11.1833C7.81172 10.8758 7.56255 10.6267 7.25505 10.6267H5.70422V7.09417C5.70338 6.78667 5.45422 6.53833 5.14755 6.5375L5.10172 6.53667Z" fill="#F4F1E9"/>
</g>
<defs>
<clipPath id="clip0_1457_6853">
<rect width="21.6667" height="20" fill="white" transform="translate(0.612549 0.5)"/>
</clipPath>
</defs>
</svg>
