<svg width="26" height="21" viewBox="0 0 26 21" fill="none" xmlns="http://www.w3.org/2000/svg">
<g clip-path="url(#clip0_1457_6859)">
<path d="M24.889 2.86617C23.9838 3.26784 23.0116 3.53938 21.9893 3.66143C23.0326 3.0367 23.8318 2.04673 24.2092 0.868502C23.2182 1.45711 22.1336 1.8715 21.0026 2.09365C20.0821 1.11254 18.7696 0.5 17.3175 0.5C14.5302 0.5 12.2697 2.75956 12.2697 5.54845C12.2697 5.9436 12.3142 6.32911 12.3998 6.69925C8.20395 6.48837 4.48407 4.47852 1.99415 1.42455C1.55938 2.17041 1.31052 3.03762 1.31052 3.96288C1.31052 5.71416 2.2019 7.25933 3.55633 8.16446C2.75453 8.13961 1.97032 7.92319 1.26927 7.53328V7.59707C1.26927 10.0433 3.00921 12.0831 5.31888 12.547C4.8946 12.6632 4.44934 12.724 3.98869 12.724C3.663 12.724 3.34702 12.6932 3.03834 12.6351C3.68079 14.6401 5.54526 16.0996 7.7538 16.1409C6.02598 17.4953 3.84885 18.3027 1.48424 18.3027C1.07697 18.3027 0.674451 18.2784 0.279297 18.2307C2.51383 19.6636 5.16699 20.5 8.01811 20.5C17.3037 20.5 22.3821 12.8073 22.3821 6.13603C22.3821 5.91702 22.3773 5.69963 22.3667 5.48303C23.3561 4.76737 24.2102 3.88125 24.889 2.86617Z" fill="#F4F1E9"/>
</g>
<defs>
<clipPath id="clip0_1457_6859">
<rect width="25" height="20" fill="white" transform="translate(0.279297 0.5)"/>
</clipPath>
</defs>
</svg>
