<svg width="196" height="137" viewBox="0 0 196 137" fill="none" xmlns="http://www.w3.org/2000/svg">
<g clip-path="url(#clip0_62_1160)">
<path d="M187.3 75.741L186.686 82.4266L185.162 99.0323H154.55C154.789 95.3105 155.116 89.9533 155.465 84.1702C155.499 83.5926 155.536 83.0114 155.57 82.4266C156.445 67.8894 157.403 51.439 157.403 51.439L161.428 52.4642L169.236 54.4497L172.418 55.2583L180.938 57.4279C185.186 58.5072 188.108 66.9184 187.3 75.741V75.741Z" fill="#F2F2F2"/>
<path d="M164.145 24.5381L167.909 33.5465L160.674 40.5585L157.587 29.4854L164.145 24.5381Z" fill="#FFB6B6"/>
<path d="M159.352 33.0602C164.503 33.0602 168.678 27.3505 168.678 20.3072C168.678 13.2639 164.503 7.5542 159.352 7.5542C154.202 7.5542 150.026 13.2639 150.026 20.3072C150.026 27.3505 154.202 33.0602 159.352 33.0602Z" fill="#FFB6B6"/>
<path d="M158.683 23.1586C157.942 21.6174 158.233 20.8114 157.613 20.245C157.613 20.245 157.363 20.0171 155.578 19.8871C155.178 15.9528 154.679 15.4757 154.679 15.4757C154.104 14.9258 153.251 15.1045 152.72 15.4408C151.597 16.1521 151.727 17.6886 150.971 17.9826C149.926 18.3887 148.026 16.099 147.838 13.4778C147.686 11.3395 148.693 9.2628 149.093 9.37266C149.489 9.48159 150.437 7.82569 150.949 7.85123C151.299 7.86868 152.728 7.0193 153.113 7.08571C153.533 7.15824 154.917 8.14606 154.974 7.92037C155.375 6.35207 155.257 5.91693 155.598 5.46827C156.2 4.67325 157.186 5.22688 158.733 5.5241C161.915 6.13564 162.471 4.70069 164.102 5.67331C164.926 6.16463 165.615 7.48966 166.96 10.1197C168.841 13.7977 169.782 15.6367 169.788 17.7816C169.794 19.9691 169.019 19.8302 168.679 23.0686C168.3 26.6734 169.105 28.3218 168.226 29.4929C167.546 30.398 166.165 30.6129 165.44 29.8185C164.197 28.4584 165.823 25.1766 164.448 22.7788C163.605 21.307 161.907 20.6521 161.13 21.3797C160.251 22.2023 160.735 24.6169 160.117 24.8458C159.588 25.0419 158.812 23.4272 158.683 23.1586L158.683 23.1586Z" fill="#2F2E41"/>
<path d="M180.407 73.3866C180.147 79.4687 179.114 81.3888 178.752 88.5717C178.673 90.1487 178.625 91.9792 178.625 94.1622C178.625 94.7187 178.627 95.2568 178.627 95.7826C178.627 96.9018 178.612 97.9594 178.517 99.0323C178.444 99.8888 178.32 100.751 178.114 101.661H158.028C158.026 101.654 158.026 101.648 158.024 101.642C157.906 100.943 157.832 100.275 157.775 99.6353C157.757 99.4311 157.741 99.2302 157.728 99.0323C157.709 98.8003 157.694 98.5716 157.678 98.3459C157.617 97.4461 157.556 96.5957 157.411 95.7826C157.217 94.66 156.864 93.6025 156.14 92.5822C155.844 92.1648 155.548 91.8402 155.258 91.5557C155.202 91.503 155.148 91.4505 155.091 91.3979C154.291 90.6465 153.533 90.1054 152.877 88.5717C152.866 88.5501 152.857 88.5254 152.848 88.5038C152.735 88.2347 152.441 87.5297 152.228 86.5898C152.004 85.6127 151.869 84.385 152.113 83.1298C152.694 80.1552 154.847 79.8583 156.606 76.8528C156.796 76.5282 156.984 76.1694 157.162 75.7705C157.958 74.0018 158.173 72.4435 158.426 70.5913C158.467 70.2913 158.503 69.9945 158.532 69.707C158.555 69.4905 158.576 69.2772 158.591 69.0669C158.731 67.3013 158.664 65.78 158.499 64.4195C157.961 59.9638 156.373 57.2057 157.495 53.2076C157.847 51.9523 158.347 51.0092 158.851 50.2022C159.919 48.4922 161.015 47.3822 160.825 45.1745C160.633 42.9482 159.398 42.642 159.261 40.697C159.19 39.7139 159.426 38.678 159.867 37.6607V37.6577C161.278 34.383 164.801 31.3683 167.039 31.4641C167.453 31.4797 167.819 31.6064 168.124 31.8507C169.23 32.7411 168.769 34.6861 170.463 37.4134C171.722 39.4386 173.146 40.2488 173.687 40.6321C175.828 42.1597 177.569 46.6648 178.752 52.4254C178.761 52.4687 178.77 52.5119 178.779 52.5584C179.509 56.1668 180.025 60.2638 180.28 64.4195C180.389 66.1789 180.452 67.9477 180.466 69.6977C180.477 71.0953 180.454 72.3075 180.407 73.3866Z" fill="#2B6CB0"/>
<path d="M165.366 94.2242L164.956 95.7826L164.699 96.7596L164.102 99.0323L163.41 101.661H158.962L159.708 99.0323L160.054 97.8079L160.629 95.7826L161.592 92.3813L165.366 94.2242Z" fill="#FFB6B6"/>
<path d="M178.822 51.8935C178.811 52.0946 178.795 52.3172 178.779 52.5584C178.603 55.0135 178.186 59.4073 177.578 64.4196C177.257 67.0633 176.882 69.8803 176.459 72.6785C175.55 78.7173 174.42 84.6635 173.142 88.5718C172.914 89.2769 172.678 89.9138 172.439 90.4766C172.256 90.9064 172.063 91.3299 171.862 91.7474C171.211 93.1172 170.48 94.4159 169.723 95.628C169.694 95.6805 169.66 95.7301 169.626 95.7826C169.504 95.9804 169.377 96.1753 169.25 96.3701C168.631 97.3255 167.998 98.216 167.385 99.0323C166.639 100.028 165.92 100.909 165.275 101.661H158.053L158.024 101.642L156.984 101.011C156.984 101.011 157.28 100.535 157.775 99.6353C157.877 99.4528 157.985 99.2518 158.103 99.0323C158.248 98.7633 158.404 98.4664 158.571 98.1448C158.919 97.4709 159.315 96.6793 159.74 95.7826C160.563 94.0478 161.501 91.9143 162.449 89.4438C162.558 89.1562 162.668 88.8656 162.779 88.5718C162.781 88.5626 162.786 88.5532 162.788 88.544C162.976 88.043 163.161 87.5267 163.346 87.001C164.918 82.5298 165.368 78.8193 165.497 77.6166C165.678 75.916 165.929 73.5381 165.861 70.9222C165.816 69.1969 165.633 67.3725 165.196 65.5606V65.5575C165.106 65.1772 165.004 64.7969 164.889 64.4196C164.683 63.7424 164.439 63.0745 164.149 62.4159C162.872 59.5156 161.834 59.395 161.008 56.2348C160.764 55.298 160.21 53.183 160.38 50.9505V50.9475C160.4 50.6722 160.434 50.394 160.479 50.1156V50.1125C160.491 50.0352 160.507 49.9549 160.522 49.8776C160.651 49.1943 160.864 48.517 161.187 47.8738C161.818 46.6247 162.679 45.8825 163.45 45.4404L163.453 45.4373C164.344 44.9303 165.113 44.822 165.262 44.8035C168.565 44.4016 171.127 48.1986 172.527 50.2733C173.067 51.0741 173.563 51.7452 174.015 52.2924C177.535 56.5905 178.501 53.8446 178.752 52.4254C178.79 52.2059 178.811 52.0173 178.822 51.8935V51.8935Z" fill="#2B6CB0"/>
<path d="M178.833 51.7329C178.833 51.7483 178.831 51.8009 178.822 51.8875C178.826 51.841 178.829 51.7947 178.831 51.7513C178.831 51.7421 178.831 51.7359 178.833 51.7329Z" fill="#2B6CB0"/>
<path d="M160.875 116.979H39.6654C38.5393 116.979 37.6213 118.231 37.6213 119.771C37.6213 121.314 38.5393 122.566 39.6654 122.566H160.875C162.001 122.566 162.917 121.314 162.917 119.771C162.917 118.231 162.001 116.979 160.875 116.979Z" fill="#E6E6E6"/>
<path d="M133.976 131.413H66.5619C65.4359 131.413 64.5201 132.665 64.5201 134.205C64.5201 135.745 65.4359 137 66.5619 137H133.976C135.102 137 136.02 135.745 136.02 134.205C136.02 132.665 135.102 131.413 133.976 131.413Z" fill="#E6E6E6"/>
<path d="M53.1531 25.1306L60.7921 20.7344L64.0686 29.9195L56.0411 34.4001L53.1531 25.1306Z" fill="#FFB6B6"/>
<path opacity="0.1" d="M53.1531 25.1306L60.7921 20.7344L64.0686 29.9195L56.0411 34.4001L53.1531 25.1306Z" fill="black"/>
<path d="M54.239 21.6305L61.7751 33.504C61.7751 33.504 56.5326 56.1309 51.2901 58.1471C46.0477 60.1634 36.3819 70.0206 36.3819 70.0206L24.2588 59.2672L30.1565 47.3937C30.1565 47.3937 44.4094 20.7344 48.1774 20.7344C51.9455 20.7344 54.239 21.6305 54.239 21.6305V21.6305Z" fill="#2B6CB0"/>
<path d="M44.0572 99.0326H26.5146L25.4055 97.0052L20.8774 88.7273L19.8354 86.8231C19.8354 86.8231 15.9036 76.9659 16.7227 68.0047C17.5419 59.0436 26.0608 57.0273 26.0608 57.0273H26.4114L36.8406 69.5595L36.2181 81.2224L39.5208 88.7273L44.0572 99.0326Z" fill="#2F2E41"/>
<path d="M30.1074 99.0324H25.4055V89.5112L30.1074 99.0324Z" fill="#2F2E41"/>
<path d="M131.519 84.5782L130.934 88.7272L129.483 99.0325H100.323C100.551 96.7227 100.862 93.3982 101.195 89.8092C101.228 89.4508 101.262 89.0901 101.295 88.7272C102.129 79.7056 103.041 69.4966 103.041 69.4966L106.875 70.1328L114.313 71.365L117.343 71.8668L125.459 73.2132C129.506 73.8831 132.289 79.1029 131.519 84.5782H131.519Z" fill="#F2F2F2"/>
<path d="M172.786 99.0324H156.97C157.211 98.6448 157.347 98.4208 157.347 98.4208L162.088 97.35L171.857 95.1455C171.857 95.1455 172.302 96.7204 172.786 99.0324V99.0324Z" fill="#2F2E41"/>
<path d="M105.699 29.6118L112.577 42.9133L100.58 43.4033L99.2919 30.903L105.699 29.6118Z" fill="#A0616A"/>
<path opacity="0.1" d="M105.699 29.6118L112.577 42.9133L100.58 43.4033L99.2919 30.903L105.699 29.6118Z" fill="black"/>
<path d="M71.7798 57.1713C70.8972 53.6899 68.8683 51.4906 67.2481 52.259C65.628 53.0275 65.0305 56.4721 65.9137 59.9546C66.2525 61.3524 66.8312 62.6188 67.6013 63.648L71.4769 78.3343L76.478 75.7004L72.1264 61.5019C72.2654 60.0413 72.1466 58.5563 71.7798 57.1713Z" fill="#A0616A"/>
<path d="M118.337 50.3939L118.328 63.9498L117.406 68.9569L115.509 79.2554L114.128 88.7274L113.099 95.7842L112.732 98.3046C112.455 98.5577 112.18 98.7997 111.904 99.0327H87.9414C86.58 97.9148 85.8183 97.0455 85.8183 97.0455C85.8183 97.0455 86.1951 96.5616 86.6259 95.7842C87.3533 94.4714 88.2331 92.3208 87.6941 90.2664C87.581 89.8363 87.5515 89.3121 87.5859 88.7274C87.8055 84.8696 90.7642 78.3459 90.7642 78.3459L90.1515 68.6634L89.8828 64.4203L91.7771 43.7311L97.9518 38.8227L99.0178 38.6817L109.54 37.9043L113.89 38.247L114.088 38.321L118.337 50.3939V50.3939Z" fill="#CCCCCC"/>
<path d="M118.805 99.0327H113.562L113.331 95.7843L113.326 95.7193L114.811 95.5804L118.672 95.2197L118.739 97.1643L118.792 98.6563L118.805 99.0327Z" fill="#FFB6B6"/>
<path d="M120.095 53.6714L122.298 71.3405L120.5 88.7274L120.22 91.4336L119.725 96.2121L119.573 97.6818L119.578 97.8408L119.616 99.0327H113.39L113.161 95.7842L113.141 95.493L112.673 88.8394L112.665 88.7274L111.67 74.6181L113.62 64.4203L113.764 63.6698V63.6675L114.612 46.2068L113.955 38.2717L113.949 38.1978C113.962 38.209 113.973 38.2202 113.986 38.2314C114.021 38.2605 114.055 38.2896 114.088 38.321C117.915 41.6411 120.195 47.4658 120.095 53.6714Z" fill="#CCCCCC"/>
<path d="M94.0074 47.1165L91.6134 43.7305C91.6134 43.7305 86.4886 46.8898 86.2332 48.6426C85.9777 50.3954 76.9293 76.1391 76.9293 76.1391L72.9926 61.7613L67.8684 66.4397C67.8684 66.4397 71.9801 88.762 75.8254 89.81C79.6707 90.8579 92.5584 63.3894 92.5584 63.3894L94.0074 47.1165H94.0074Z" fill="#CCCCCC"/>
<path d="M191.213 88.5718H4.78466C2.1459 88.5718 0 91.5093 0 95.1177C0 98.7261 2.1459 101.661 4.78466 101.661H191.213C193.852 101.661 196 98.7263 196 95.1177C196 91.5091 193.852 88.5718 191.213 88.5718Z" fill="#E6E6E6"/>
<path d="M117.246 68.6254L116.884 91.7549C116.849 93.9939 115.511 95.7839 113.874 95.7839H82.7596C81.1606 95.7839 79.8405 94.0747 79.7532 91.8914L78.8286 68.7619C78.7343 66.4032 80.1075 64.4199 81.8349 64.4199H114.236C115.924 64.4199 117.283 66.3175 117.246 68.6254Z" fill="#3F3D56"/>
<path d="M67.0175 30.7139C71.1288 30.7139 74.4616 26.1563 74.4616 20.5342C74.4616 14.9121 71.1288 10.3545 67.0175 10.3545C62.9062 10.3545 59.5733 14.9121 59.5733 20.5342C59.5733 26.1563 62.9062 30.7139 67.0175 30.7139Z" fill="#FFB6B6"/>
<path d="M54.5667 47.1697L55.3858 59.2672L60.9559 89.9591L56.1437 92.2655L48.0136 58.8191L46.8907 45.3774L54.5667 47.1697Z" fill="#FFB6B6"/>
<path d="M52.351 68.6254L51.9885 91.7549C51.9534 93.9939 50.6161 95.7839 48.9784 95.7839H17.8642C16.2652 95.7839 14.9451 94.0747 14.8578 91.8914L13.9332 68.7619C13.8389 66.4032 15.2121 64.4199 16.9395 64.4199H49.3408C51.0289 64.4199 52.3871 66.3175 52.351 68.6254Z" fill="#3F3D56"/>
<path d="M61.8428 95.9404C65.0897 95.9404 67.7219 94.3484 67.7219 92.3845C67.7219 90.4206 65.0897 88.8286 61.8428 88.8286C58.596 88.8286 55.9638 90.4206 55.9638 92.3845C55.9638 94.3484 58.596 95.9404 61.8428 95.9404Z" fill="#FFB6B6"/>
<path d="M43.0169 49.0194L46.3754 24.543C46.3754 24.543 55.7135 22.7508 56.0411 27.0073C56.3688 31.2638 55.807 52.0661 55.807 52.0661L43.0169 49.0194V49.0194Z" fill="#2B6CB0"/>
<path d="M64.0125 22.1351C64.0125 22.1351 68.6174 19.8876 70.5599 18.6784C72.5024 17.4692 76.3614 25.9035 76.4472 21.449C76.5331 16.9946 75.1996 15.1266 75.1996 15.1266C75.1996 15.1266 74.8666 5.3819 67.6873 6.60022C67.6873 6.60022 69.2664 1.72483 64.0828 0.970942C58.8992 0.217053 50.8348 17.3345 51.557 19.8926C52.2792 22.4508 53.145 24.5657 51.096 27.3008C49.047 30.036 45.2101 45.4727 48.1294 49.6266C51.0486 53.7805 51.2402 55.5831 49.24 58.1673C47.2399 60.7516 42.5121 66.3707 47.6239 67.3462C52.7357 68.3217 47.1562 67.5931 50.9672 63.0092C54.7781 58.4252 60.3391 58.6124 58.2627 51.2579C56.1863 43.9033 59.7938 33.3642 59.3424 31.7654C58.891 30.1666 60.3537 20.014 60.3537 20.014C60.3537 20.014 63.7579 19.3301 64.0125 22.1351V22.1351Z" fill="#2F2E41"/>
<path d="M102.022 34.4263C106.497 34.4263 110.125 29.465 110.125 23.345C110.125 17.2249 106.497 12.2637 102.022 12.2637C97.5463 12.2637 93.9182 17.2249 93.9182 23.345C93.9182 29.465 97.5463 34.4263 102.022 34.4263Z" fill="#A0616A"/>
<path d="M102.668 8.44676C102.434 8.63394 102.12 8.35075 102.045 7.99398C101.97 7.63722 102.057 7.25843 102.144 6.90666L102.581 5.13578C102.891 3.87983 103.22 2.57999 103.892 1.62405C104.906 0.181212 106.517 -0.185839 107.967 0.0800767C109.829 0.421566 111.666 1.80053 112.532 4.08081C113.398 6.3611 113.029 9.54292 111.465 10.9656C113.695 14.4607 114.472 18.3558 114.349 22.9912C114.227 27.6265 110.533 31.8925 108.124 35.1579C107.586 34.712 107.097 32.6221 107.393 31.8629C107.688 31.1037 107.265 30.2241 107.631 29.5248C107.997 28.8255 108.304 29.939 107.933 29.2437C107.7 28.8049 108.612 27.7955 108.264 27.5329C106.584 26.2627 106.025 23.3984 104.97 21.2051C103.697 18.5595 101.518 16.7678 99.2123 16.4706C97.9422 16.3069 96.6006 16.6034 95.5595 17.6118C94.5185 18.6201 93.8445 20.422 94.0859 22.1351C93.4607 21.2669 93.1494 19.9947 93.2668 18.7869C93.3842 17.579 93.9276 16.4621 94.697 15.8475C94.2292 13.732 94.6299 11.2987 95.7157 9.6617C96.8015 8.02471 101.206 8.30352 102.791 8.73435L102.668 8.44676Z" fill="#2F2E41"/>
<path d="M102.915 16.5347C105.014 16.8446 106.53 19.3315 107.81 21.6281C108.548 22.9518 109.321 24.4137 109.302 26.0778C109.283 27.7604 108.461 29.2035 108.068 30.798C107.425 33.4043 108.051 36.5052 109.581 38.291C108.069 38.6833 106.435 37.1334 106.174 35.06C105.871 32.6463 107.209 30.3168 107.05 27.8772C106.911 25.7279 105.672 24.0738 104.619 22.4668C103.566 20.8598 102.577 18.7273 103.062 16.6737L102.915 16.5347Z" fill="#2F2E41"/>
<path d="M134.301 89.9722C132.222 91.5896 131.146 94.368 131.899 96.1775C132.652 97.9871 134.948 98.1425 137.028 96.5241C137.866 95.8932 138.58 94.9972 139.113 93.9112L147.86 86.9058L145.369 81.3623L137.01 88.8569C136.055 88.9275 135.126 89.3099 134.301 89.9722Z" fill="#FFB6B6"/>
<path d="M163.92 38.6017C163.658 38.46 161.364 37.2721 159.27 38.8404C156.865 40.642 156.493 44.7545 156.363 46.1969C156.062 49.5289 156.949 50.2758 157.136 53.649C157.486 59.96 158.41 52.7604 156.935 55.6411C156.424 56.6382 151.21 72.0903 148.335 75.117C142.742 81.0035 139.191 85.149 139.191 85.149L143.245 91.1716C143.245 91.1716 149.652 88.8373 155.314 83.8093C161.123 78.6517 164.027 76.0729 166.274 71.0281C166.468 70.5937 171.097 59.8422 168.611 47.9537C168.044 45.2419 167.005 40.2734 163.92 38.6017Z" fill="#2B6CB0"/>
<path d="M184.855 68.6254L184.493 91.7549C184.458 93.9939 183.12 95.7839 181.483 95.7839H150.368C148.769 95.7839 147.449 94.0747 147.362 91.8914L146.437 68.7619C146.343 66.4032 147.716 64.4199 149.444 64.4199H181.845C183.533 64.4199 184.891 66.3175 184.855 68.6254Z" fill="#3F3D56"/>
</g>
<defs>
<clipPath id="clip0_62_1160">
<rect width="196" height="137" fill="white"/>
</clipPath>
</defs>
</svg>
