<svg width="584" height="494" viewBox="0 0 584 494" fill="none" xmlns="http://www.w3.org/2000/svg">
<g clip-path="url(#clip0_74_1740)">
<path d="M584 458.52V468.585C584 472.052 575.702 474.874 565.505 474.874H37.6186C32.8339 474.874 28.4649 474.253 25.1799 473.23C24.8294 473.125 24.4871 473.011 24.161 472.892C21.0391 471.767 19.1236 470.251 19.1236 468.585V458.52C179.825 449.495 377.458 452.55 584 458.52Z" fill="#F2F2F2"/>
<path d="M584 469.607V479.672C584 483.14 575.702 485.961 565.505 485.961H37.6186C32.8339 485.961 28.4649 485.341 25.1799 484.318C24.8294 484.212 24.4871 484.099 24.161 483.98C21.0391 482.854 19.1236 481.338 19.1236 479.672V469.607C167.043 462.876 368.334 465.044 584 469.607Z" fill="white"/>
<path d="M584 477.646V487.711C584 491.178 575.702 494 565.505 494H37.6186C32.8339 494 28.4649 493.379 25.1799 492.356C24.8294 492.251 24.4871 492.137 24.161 492.018C21.0391 490.893 19.1236 489.377 19.1236 487.711V477.646C179.172 471.994 374.167 473.335 584 477.646Z" fill="#F2F2F2"/>
<path d="M541.874 452.453C542.671 452.502 543.112 451.512 542.509 450.935L542.449 450.696L542.473 450.639C543.279 448.717 546.01 448.73 546.809 450.655C547.519 452.364 548.422 454.075 548.644 455.882C548.744 456.679 548.699 457.491 548.522 458.274C550.184 454.643 551.059 450.678 551.059 446.691C551.059 445.689 551.004 444.688 550.892 443.688C550.8 442.871 550.672 442.059 550.508 441.254C549.618 436.903 547.692 432.759 544.914 429.297C543.578 428.567 542.465 427.426 541.792 426.058C541.55 425.564 541.361 425.033 541.271 424.493C541.423 424.513 541.844 422.198 541.729 422.056C541.941 421.734 542.32 421.574 542.552 421.261C543.702 419.701 545.287 419.973 546.115 422.093C547.883 422.985 547.9 424.465 546.815 425.888C546.125 426.794 546.03 428.019 545.425 428.988C545.487 429.068 545.552 429.145 545.614 429.225C546.756 430.69 547.745 432.265 548.577 433.92C548.342 432.081 548.69 429.866 549.282 428.437C549.957 426.81 551.221 425.44 552.334 424.033C553.671 422.344 556.413 423.081 556.649 425.223L556.655 425.285C556.49 425.378 556.328 425.478 556.17 425.582C555.267 426.179 555.579 427.578 556.649 427.743L556.673 427.747C556.613 428.343 556.511 428.933 556.361 429.514C557.789 435.037 554.706 437.049 550.304 437.139C550.207 437.189 550.112 437.239 550.015 437.287C550.461 438.542 550.817 439.831 551.081 441.137C551.318 442.29 551.482 443.457 551.574 444.628C551.689 446.106 551.679 447.591 551.555 449.066L551.562 449.014C551.878 447.389 552.761 445.871 554.041 444.82C555.949 443.252 558.645 442.675 560.703 441.415C561.694 440.809 562.964 441.592 562.791 442.741L562.783 442.796C562.476 442.921 562.177 443.065 561.888 443.227C561.723 443.321 561.561 443.42 561.402 443.524C560.5 444.121 560.812 445.521 561.881 445.686L561.905 445.689L561.955 445.697C561.43 446.945 560.697 448.104 559.78 449.103C558.887 453.925 555.052 454.383 550.949 452.979H550.947C550.498 454.932 549.843 456.841 549 458.66H542.048C542.023 458.583 542.001 458.503 541.979 458.426C542.621 458.466 543.269 458.429 543.902 458.311C543.386 457.678 542.871 457.04 542.355 456.407C542.342 456.395 542.332 456.383 542.322 456.37C542.061 456.046 541.797 455.725 541.535 455.401L541.535 455.4C541.519 454.406 541.638 453.415 541.874 452.453L541.874 452.453V452.453Z" fill="#F2F2F2"/>
<path d="M232.945 445.116C233.742 445.166 234.182 444.175 233.579 443.598L233.519 443.36L233.543 443.302C234.349 441.38 237.081 441.393 237.88 443.318C238.589 445.027 239.492 446.738 239.715 448.545C239.814 449.342 239.769 450.155 239.593 450.937C241.255 447.306 242.129 443.342 242.129 439.354C242.129 438.353 242.074 437.351 241.962 436.352C241.87 435.534 241.743 434.722 241.579 433.917C240.689 429.566 238.763 425.422 235.984 421.96C234.649 421.23 233.535 420.089 232.862 418.721C232.621 418.227 232.431 417.696 232.341 417.156C232.493 417.176 232.915 414.861 232.8 414.719C233.012 414.397 233.391 414.237 233.622 413.924C234.773 412.364 236.358 412.636 237.186 414.756C238.953 415.648 238.97 417.128 237.886 418.551C237.196 419.457 237.101 420.682 236.495 421.651C236.558 421.731 236.622 421.808 236.685 421.888C237.827 423.353 238.815 424.928 239.648 426.583C239.413 424.744 239.76 422.529 240.353 421.101C241.027 419.473 242.291 418.103 243.404 416.696C244.742 415.007 247.484 415.744 247.719 417.886L247.726 417.948C247.56 418.041 247.398 418.141 247.24 418.245C246.338 418.842 246.65 420.241 247.719 420.407L247.743 420.41C247.683 421.006 247.581 421.596 247.432 422.177C248.86 427.7 245.777 429.712 241.374 429.803C241.277 429.852 241.182 429.902 241.085 429.95C241.531 431.206 241.888 432.494 242.152 433.8C242.388 434.953 242.553 436.12 242.645 437.291C242.76 438.769 242.75 440.254 242.625 441.729L242.633 441.677C242.949 440.052 243.831 438.534 245.112 437.483C247.02 435.915 249.716 435.338 251.774 434.078C252.765 433.472 254.034 434.255 253.862 435.404L253.853 435.459C253.547 435.584 253.248 435.728 252.959 435.89C252.793 435.984 252.631 436.083 252.473 436.188C251.57 436.784 251.882 438.184 252.952 438.349L252.976 438.353L253.026 438.36C252.5 439.609 251.768 440.767 250.851 441.767C249.958 446.588 246.122 447.046 242.02 445.642H242.017C241.569 447.595 240.913 449.504 240.071 451.323H233.119C233.094 451.246 233.072 451.166 233.049 451.089C233.692 451.129 234.34 451.092 234.973 450.974C234.457 450.341 233.941 449.704 233.425 449.071C233.413 449.058 233.403 449.046 233.393 449.033C233.131 448.709 232.867 448.388 232.606 448.064L232.605 448.063C232.589 447.069 232.708 446.078 232.944 445.116L232.945 445.116V445.116Z" fill="#F2F2F2"/>
<path d="M468.708 453.203L464.414 453.203L462.37 436.636L468.709 436.637L468.708 453.203Z" fill="#FFB6B6"/>
<path d="M468.859 457.684L455.653 457.683V457.516C455.653 454.677 457.954 452.376 460.793 452.376H460.793L463.206 450.545L467.707 452.376H468.86L468.859 457.684Z" fill="#2F2E41"/>
<path d="M524.389 429.653L521.615 432.931L507.648 423.792L511.742 418.953L524.389 429.653Z" fill="#FFB6B6"/>
<path d="M527.907 432.431L519.378 442.514L519.25 442.406C517.083 440.573 516.812 437.329 518.645 435.161L518.646 435.161L518.806 432.137L523.111 429.883L523.855 429.002L527.907 432.431Z" fill="#2F2E41"/>
<path d="M489.675 331.351L466.652 334.023L457.577 349.57L456.276 354.776L456.865 358.355L455.408 360.849L456.276 365.621L452.806 403.361L462.348 445.872H471.24L468.421 406.397L475.795 372.561L482.301 405.53L512.391 431.736L519.4 421.688L496.182 402.059L494.013 395.119L496.935 389.25L499.218 350.438L489.675 331.351Z" fill="#2F2E41"/>
<path d="M478.714 345.577C478.714 345.577 493.232 350.098 494.761 344.983C496.291 339.868 494.382 333.545 492.935 332.873C491.488 332.201 493.204 327.792 494.81 324.845C496.415 321.898 496.168 320.277 495.246 319.924C494.324 319.571 479.952 283.877 479.952 283.877L475.066 282.85L471.148 278.042L462.831 279.047L459.429 285.341L453.731 288.36L451.651 307.513C451.651 307.513 452.674 315.72 454.758 324.354C455.406 327.041 456.157 329.768 457.012 332.303C459.025 338.273 461.614 343.172 464.794 343.938C473.662 346.075 478.714 345.577 478.714 345.577Z" fill="#6C63FF"/>
<path d="M429.181 311.982L426.219 312.527L425.534 312.652L424.435 312.858L401.575 317.066C400.376 317.846 398.803 317.718 397.741 316.754C396.519 315.623 396.446 313.712 397.576 312.49C397.596 312.469 397.616 312.453 397.636 312.432C398.818 311.195 400.776 311.128 402.044 312.275C402.165 312.392 402.277 312.517 402.378 312.65L402.995 312.448L404.93 311.819L406.392 311.343L409.3 310.391L410.428 310.024L414.084 308.833L417.611 307.684L421.885 306.291L425.17 305.218L425.825 306.322L429.181 311.982Z" fill="#FFB6B6"/>
<path d="M434.583 312.906C433.943 312.977 433.521 312.994 433.374 312.961C432.148 312.666 433.505 311.865 430.794 313.023C428.593 313.96 428.408 312.275 428.09 312.994C427.565 314.181 426.824 312.975 426.219 312.527C425.952 312.326 425.714 312.279 425.534 312.652C425.469 312.778 425.415 312.957 425.369 313.199C425.226 313.922 424.872 313.635 424.435 312.858C423.716 311.569 422.776 308.942 422.24 307.345C422.082 306.893 421.963 306.522 421.885 306.29C421.829 306.119 421.8 306.02 421.8 306.02C421.8 306.02 421.971 305.528 422.806 305.099C423.388 304.796 424.301 304.528 425.71 304.479C426.576 304.449 427.255 304.631 427.778 304.7C428.086 304.742 428.34 304.744 428.546 304.648L428.551 304.646C428.78 304.543 428.954 304.324 429.085 303.904C429.321 303.149 430.308 303.24 431.286 303.486C432.205 303.725 433.123 304.096 433.394 304.016C433.785 303.901 444.138 294.751 450.751 288.882C453.773 286.201 458.38 286.412 461.143 289.359L463.954 292.358C463.954 292.358 465.759 293.551 466.086 295.789C466.221 296.731 466.095 297.861 465.454 299.174C464.891 300.321 463.928 301.611 462.401 303.026C455.917 309.04 439.304 312.393 434.583 312.906Z" fill="#6C63FF"/>
<path d="M499.194 314.977L500.288 317.782L500.541 318.432L500.95 319.472L509.398 341.128C510.39 342.159 510.562 343.728 509.815 344.952C508.936 346.366 507.074 346.799 505.66 345.919C505.636 345.904 505.616 345.887 505.592 345.872C504.154 344.945 503.718 343.034 504.606 341.573C504.698 341.432 504.799 341.297 504.911 341.174L504.596 340.606L503.612 338.824L502.869 337.478L501.386 334.802L500.812 333.764L498.952 330.398L497.158 327.151L494.983 323.217L493.31 320.193L494.27 319.342L499.194 314.977V314.977Z" fill="#FFB6B6"/>
<path d="M499.081 309.497C499.272 310.112 499.369 310.523 499.364 310.674C499.305 311.933 498.263 310.752 499.912 313.196C501.247 315.18 499.628 315.68 500.394 315.856C501.658 316.149 500.614 317.104 500.288 317.782C500.141 318.083 500.14 318.325 500.54 318.432C500.676 318.471 500.862 318.491 501.109 318.49C501.846 318.494 501.631 318.896 500.95 319.472C499.821 320.422 497.418 321.841 495.951 322.668C495.538 322.909 495.195 323.096 494.983 323.217C494.825 323.304 494.733 323.351 494.733 323.351C494.733 323.351 494.218 323.276 493.639 322.537C493.231 322.023 492.796 321.177 492.482 319.802C492.289 318.957 492.339 318.256 492.309 317.729C492.292 317.419 492.245 317.169 492.112 316.985L492.11 316.981C491.965 316.775 491.717 316.645 491.28 316.596C490.494 316.507 490.397 315.52 490.454 314.513C490.515 313.566 490.706 312.594 490.576 312.343C490.301 311.809 480.852 302.332 480.852 302.332L473.359 284.531C473.359 284.531 474.19 282.533 476.326 281.79C477.225 281.48 478.358 281.39 479.768 281.772C481.001 282.108 482.449 282.81 484.127 284.042C491.258 289.275 497.686 304.958 499.081 309.497H499.081Z" fill="#6C63FF"/>
<path d="M464.305 276.953C469.828 276.953 474.306 272.475 474.306 266.951C474.306 261.427 469.828 256.95 464.305 256.95C458.782 256.95 454.304 261.427 454.304 266.951C454.304 272.475 458.782 276.953 464.305 276.953Z" fill="#FFB6B6"/>
<path d="M472.784 274.846C472.784 274.846 469.47 276.207 467.822 276.398C468.65 275.12 469.8 272.844 470.626 271.57C471.059 270.899 471.5 270.214 471.697 269.444C471.892 268.668 471.805 267.78 471.277 267.187C470.769 266.612 469.883 266.413 469.181 266.716C468.475 267.018 468.01 267.797 468.072 268.556C467.451 268.32 467.313 267.486 467.427 266.829C467.542 266.172 467.811 265.5 467.624 264.856C467.445 264.233 466.85 263.793 466.218 263.632C465.591 263.47 464.926 263.545 464.283 263.666C462.448 264.005 460.664 264.7 458.794 264.722C458.424 264.729 458.049 264.696 457.674 264.632C457.99 263.61 457.972 262.482 457.57 261.491C457.189 262.421 456.628 263.277 455.932 264.007C455.163 263.568 454.555 262.924 454.285 262.079C453.986 261.143 454.158 260.106 454.566 259.214C454.755 258.804 454.99 258.419 455.258 258.055C455.525 258.071 455.799 258.06 456.064 258.023C456.651 257.949 457.215 257.774 457.731 257.48C457.198 257.341 456.68 257.145 456.189 256.889C456.212 256.863 456.232 256.839 456.254 256.812C456.749 256.253 457.282 255.682 457.984 255.435C458.686 255.188 459.601 255.374 459.944 256.04C461.87 254.386 464.478 253.552 467.009 253.785C469.495 254.015 471.875 255.268 473.472 257.194C472.973 257.509 472.534 257.909 472.192 258.39C472.844 258.27 473.512 258.238 474.174 258.289C474.462 258.91 474.561 259.579 474.252 260.169C474.87 260.742 476.104 261.759 475.319 261.943C476.567 263.998 477.015 266.525 476.552 268.884C476.087 271.246 474.716 273.417 472.784 274.846V274.846Z" fill="#2F2E41"/>
<path d="M337.823 452.708L343.149 452.708L345.682 432.165L337.822 432.166L337.823 452.708Z" fill="#A0616A"/>
<path d="M337.636 458.264L354.012 458.263V458.056C354.012 454.536 351.158 451.682 347.638 451.682H347.638L344.646 449.412L339.065 451.682L337.636 451.682L337.636 458.264Z" fill="#2F2E41"/>
<path d="M293.04 448.093L298.08 449.812L307.109 431.187L299.67 428.65L293.04 448.093Z" fill="#A0616A"/>
<path d="M291.069 453.291L306.568 458.578L306.635 458.381C307.771 455.049 305.992 451.427 302.66 450.29L302.66 450.29L300.561 447.177L294.546 447.523L293.193 447.062L291.069 453.291H291.069Z" fill="#2F2E41"/>
<path d="M351.083 340.777C351.083 340.777 356.207 356.515 355.261 358.586C354.315 360.658 352.702 359.044 354.315 360.658C355.929 362.271 357.338 360.556 355.826 363.296C354.315 366.037 352.026 388.596 351.019 389.688C350.012 390.78 348.628 390.81 349.858 391.871C351.088 392.932 352.702 390.78 351.088 392.932C349.475 395.084 345.193 444.719 345.193 444.719H336.828C336.828 444.719 334.745 442.317 335.924 440.755C337.104 439.192 335.821 438.589 335.924 437.546C336.028 436.502 335.636 434.252 335.563 433.226C335.49 432.199 334.077 407.741 337.473 393.613L331.28 366.711L323.778 399.225C323.778 399.225 311.742 423.237 308.291 432.005C308.291 432.005 311.073 434.322 309.839 435.664C308.605 437.007 307.53 435.931 308.605 437.007C309.681 438.083 306.992 441.848 306.992 441.848L294.588 441.31L308.16 393.613C308.16 393.613 307.288 388.298 308.16 387.388C309.033 386.477 309.033 389.705 309.033 386.477V382.174C309.033 382.174 309.538 355.706 309.605 354.148C309.673 352.589 316.127 341.293 316.127 341.293L351.083 340.777Z" fill="#2F2E41"/>
<path d="M350.876 286.419V317.452C350.876 317.452 349.313 321.74 349.346 326.77C349.379 332.045 350.539 338.125 350.535 340.783C350.535 341.242 350.502 341.594 350.421 341.829C345.286 356.716 318.109 343.188 315.639 341.921C315.521 341.862 315.459 341.829 315.459 341.829L315.995 325.155L315.903 320.36L315.268 287.469L315.837 287.014L320.822 283.038L321.311 282.649L322.808 284.833L336.16 283.916L341.255 282.506L342.844 283.152L350.01 286.067L350.876 286.419Z" fill="#3F3D56"/>
<path d="M391.027 328.055L383.464 321.736L379.252 325.553L387.486 331.949C387.545 332.262 387.65 332.572 387.805 332.868C388.65 334.482 390.644 335.105 392.257 334.26C393.871 333.415 394.494 331.421 393.649 329.807C393.11 328.778 392.104 328.154 391.027 328.055Z" fill="#A0616A"/>
<path d="M344.13 285.788C342.374 288.239 343.52 292.211 344.55 295.045C345.872 298.687 361.909 314.553 366.007 315.399C369.185 316.054 368.504 315.987 369.341 318.029C370.178 320.072 367.681 319.484 370.751 320.998C373.821 322.512 374.365 321.322 374.512 322.938C374.658 324.554 373.732 325.127 375.921 325.906C378.11 326.685 378.492 327.302 379.182 327.729C379.873 328.155 383.662 332.211 383.662 332.211C383.662 332.211 387.645 327.613 390.804 326.512C390.804 326.512 385.662 323.719 385.707 322.411C385.751 321.104 386.486 320.222 384.987 319.869C383.489 319.516 382.137 320.78 383.107 318.899C384.077 317.019 375.381 309.171 375.381 309.171C372.169 301.909 363.68 294.122 354.21 286.238C351.333 283.842 347.209 283.658 344.13 285.788L344.13 285.788Z" fill="#3F3D56"/>
<path d="M312.259 348.214L311.834 338.368L306.176 337.826L306.995 348.22C306.804 348.474 306.646 348.76 306.531 349.075C305.908 350.787 306.79 352.68 308.502 353.303C310.213 353.927 312.106 353.044 312.73 351.332C313.127 350.241 312.91 349.077 312.259 348.214V348.214Z" fill="#A0616A"/>
<path d="M318.173 286.511L318.014 286.53C315.02 286.883 312.393 288.691 310.993 291.361C309.192 294.791 303.492 318.024 304.888 321.213C306.189 324.186 306.135 323.455 305.19 325.449C304.244 327.444 302.997 325.201 303.946 328.491C304.895 331.78 306.141 331.38 305.045 332.577C303.949 333.774 302.902 333.476 303.801 335.619C304.699 337.762 304.5 338.459 304.651 339.257C304.801 340.054 304.356 345.587 304.356 345.587C304.356 345.587 310.436 345.434 313.378 347.027C313.378 347.027 311.979 341.346 312.975 340.498C313.971 339.65 315.118 339.599 314.369 338.254C313.62 336.908 311.776 336.76 313.819 336.21C315.863 335.661 315.805 323.947 315.805 323.947L318.173 286.511V286.511Z" fill="#3F3D56"/>
<path d="M332.751 273.963C332.512 274.018 332.274 274.066 332.035 274.103C331.294 274.224 330.552 274.26 329.829 274.216C327.634 274.103 325.563 273.291 323.889 271.955C322.12 270.545 320.798 268.552 320.244 266.18C318.941 260.581 322.425 254.979 328.023 253.676C333.54 252.387 339.058 255.75 340.467 261.206C340.489 261.29 340.511 261.371 340.53 261.455C341.833 267.057 338.353 272.656 332.751 273.963Z" fill="#A0616A"/>
<path d="M323.14 272.734C321.691 271.6 321.551 269.439 320.315 268.077C318.248 265.8 317.277 263.35 318.36 260.651C319.317 258.265 319.114 255.331 321.176 253.795C320.163 253.428 319.925 252.667 320.818 252.652C321.421 252.643 323.668 253.795 322.587 252.36C321.506 250.925 323.552 251.491 323.417 250.904C323.281 250.317 322.413 249.991 322.031 250.457C323.253 249.025 325.921 249.33 326.788 251.001C328.006 249.176 329.299 247.919 331.163 249.078C332.994 250.216 332.97 251.622 334.938 251.284C335.864 251.125 335.951 252.874 336.584 253.568C337.216 254.263 338.14 254.8 339.063 254.626C339.985 254.451 340.691 253.301 340.174 252.517L342.348 257.479L343.225 256.404C344.617 257.311 344.16 259.68 342.758 260.573C341.356 261.466 338.681 259.402 337.92 260.88C336.721 263.209 333.908 262.033 331.976 260.386C329.633 258.39 326.806 264.461 327.934 267.325C326.763 266.175 324.597 267.129 323.991 268.654C323.384 270.179 323.829 271.897 324.278 273.476L323.14 272.734H323.14Z" fill="#2F2E41"/>
<path d="M342.975 283.152L342.611 283.615L341.635 284.855L338.021 295.531L320.953 283.038L321.441 282.649L324.04 277.124L337.391 276.206L341.385 282.506L342.975 283.152Z" fill="#E6E6E6"/>
<path d="M514.242 114.267C520.356 103.017 524.325 91.9878 525.744 81.8144C520.076 81.1516 515.062 81.6133 510.685 83.0831C518.222 70.5222 523.254 55.0532 516.704 47.1122C512.579 42.7347 507.249 39.4577 500.948 37.2812C502.986 27.8495 503.01 19.013 500.687 11.2444C489.911 -24.9251 418.588 40.2403 373.072 12.0351C353.99 0.214962 333.449 15.1083 316.813 39.0582C319.095 47.0225 323.309 54.4243 329.227 60.2366C321.687 59.6986 314.27 57.4813 307.667 53.7967C289.865 85.7435 279.105 125.736 284.493 143.817C287.99 155.547 296.361 163.43 308.107 167.49C306.069 176.921 350.099 244.626 358.212 244.555C379.781 244.368 386.487 195.374 400.887 258.16L368.809 454.056H415.271V252.03C428.199 232.067 441.552 245.419 472.329 229.882C566.727 182.227 526.484 129.702 514.242 114.267Z" fill="#F2F2F2"/>
<path d="M126.56 380.621L127.311 395.131L134.208 397.016C134.208 397.016 131.258 380.028 131.074 379.516C131.497 378.898 131.728 378.141 131.678 377.336C131.56 375.415 129.907 373.954 127.986 374.073C126.066 374.191 124.605 375.844 124.723 377.765C124.8 379.016 125.531 380.069 126.56 380.621H126.56Z" fill="#FFB6B6"/>
<path d="M101.743 413.053L101.58 413.394C101.035 413.525 101.125 413.37 101.743 413.053Z" fill="#6C63FF"/>
<path d="M131.325 409.963C127.583 408.944 123.736 408.667 120.084 408.822C116.212 408.977 112.569 409.621 109.536 410.371C108.974 408.439 108.444 406.393 108.061 404.461L112.186 401.779L116.726 400.189L126.23 396.863L126.108 391.703L127.11 391.239L132.743 388.638L132.873 388.581L136.924 399.57C138.481 404.012 135.889 408.822 131.325 409.963H131.325Z" fill="#6C63FF"/>
<path d="M206.854 148.248C205.209 132.696 182.914 133.143 187.888 118.174C178.424 122.372 169.719 128.217 162.393 135.57C182.474 69.8608 104.711 119.833 104.711 119.833C104.711 119.833 83.2255 110.575 77.1663 106.378C52.9704 89.9058 15.6161 130.838 46.6425 152.989C12.1356 136.698 9.23919 161.951 3.25551 191.312C5.53783 199.276 9.75197 206.678 15.6711 212.491C5.92952 211.955 -3.54667 204.922 1.31553 219.194C10.0577 236.753 24.7064 239.94 21.768 261.75C21.987 280.714 59.3409 285.577 99.9851 281.559C76.7889 347.629 64.1819 408.953 75.2918 459.649H115.067C101.325 398.528 98.3147 338.617 110.141 280.379C155.258 274.37 200.964 258.107 202.022 238.559C207.451 224.375 205.576 208.691 198.011 193.896C207.108 177.16 210.662 161.036 206.854 148.248H206.854Z" fill="#F2F2F2"/>
<path d="M110.966 417.978L112.351 423.928C112.351 423.928 112.365 429.414 113.336 430.426C114.301 431.433 135.515 429.411 135.515 429.411C135.515 429.411 133.266 420.57 133.296 413.881L110.966 417.978Z" fill="#FFB6B6"/>
<path d="M192.79 472.275L196.442 469.643L187.938 453.928L182.548 457.813L192.79 472.275Z" fill="#FFB6B6"/>
<path d="M206.87 464.678C206.804 464.588 206.739 464.506 206.666 464.425C206.454 464.205 206.193 464.034 205.916 463.936L205.9 463.928C205.582 463.805 205.239 463.773 204.897 463.822L203.389 464.058L197.553 464.963L196.322 465.159L194.105 462.827L193.249 463.74L190.298 466.903L189.548 467.702L188.97 468.321L196.102 477.223L198.547 474.9L196.795 472.177L200.104 473.424L201.971 471.647L203.218 470.474L206.592 467.27C206.927 466.952 207.122 466.552 207.196 466.129C207.277 465.631 207.171 465.11 206.87 464.678H206.87Z" fill="#2F2E41"/>
<path d="M190.608 457.465L184.002 460.423C177.159 453.185 170.273 443.887 165.958 428.682C156.102 441.443 147.419 448.669 135.632 455.004C131.651 457.161 117.252 457.934 115.012 453.898C114.907 453.709 114.81 453.517 114.72 453.321C112.661 448.783 114.481 436.972 113.316 430.971C117.572 423.159 127.956 429.469 135.06 426.393L143.007 429.846L157.747 412.32C160.711 408.795 166.019 408.409 169.603 411.457C169.792 411.618 169.974 411.787 170.149 411.964C173.12 417.004 175.959 421.96 178.55 426.754C179.386 428.301 182.018 430.381 180.977 431.343C179.936 432.305 182.592 434.513 183.345 436.063C187.981 445.603 189.919 450.484 190.608 457.465H190.608Z" fill="#2F2E41"/>
<path d="M107.884 380.31L116.632 379.793C117.389 379.748 118.09 380.189 118.379 380.889L120.851 386.883L131.127 395.376C131.127 395.376 135.195 400.554 135.205 407.24C135.214 413.927 135.06 426.393 135.06 426.393C135.06 426.393 130.71 421.046 127.046 423.269C126.422 423.647 126.203 424.42 125.55 424.811C125.224 425.006 124.471 424.817 124.142 425.012C119.093 428.01 114.03 430.284 113.334 430.425C110.719 430.956 109.9 428.937 111.665 426.126C112.242 425.208 111.196 424.264 111.196 424.264C109.867 423.537 109.37 422.504 110.295 420.954L103.187 394.838C102.334 391.702 102.855 388.317 104.737 385.667C105.296 384.88 105.883 384.294 106.427 384.197C107.65 383.936 107 381.195 107.884 380.31Z" fill="#6C63FF"/>
<path d="M212.915 474.329L214.576 470.149L198.886 461.608L196.434 467.778L212.915 474.329Z" fill="#FFB6B6"/>
<path d="M207.532 465.191L205.563 472.7C192.229 469.232 178.487 461.082 164.554 450.72C149.176 455.477 134.59 458.329 121.327 456.721C116.839 456.192 113.456 451.991 113.946 447.401C113.969 447.186 114 446.972 114.039 446.76C114.964 441.865 122.685 437.567 125.182 431.99L141.596 435.899L142.815 439.053L146.511 438.076L149.632 437.252L153.205 436.308L164.917 433.213C169.361 432.038 173.917 434.779 175.092 439.335C175.154 439.575 175.205 439.818 175.247 440.063L191.467 452.688C191.467 452.688 192.915 456.072 194.027 454.68C195.139 453.288 197.223 457.167 197.223 457.167L207.532 465.191Z" fill="#2F2E41"/>
<path d="M224.973 463.684C224.362 463.439 223.661 463.512 223.115 463.879L215.893 468.697L212.901 467.507L212.421 468.974L210.913 473.531L210.546 474.648L220.759 479.734L222.006 476.596L219.268 474.86L222.797 474.607L226.098 466.292C226.506 465.265 226 464.091 224.973 463.684V463.684Z" fill="#2F2E41"/>
<path d="M98.3996 363.209C98.1724 364.231 97.9244 365.295 97.2514 366.097C96.5784 366.898 95.3399 367.33 94.457 366.768C93.3775 366.081 93.4636 364.505 93.6786 363.243L94.3606 359.243C94.4907 358.48 94.6251 357.704 94.9776 357.015C95.3302 356.326 95.9412 355.725 96.7018 355.582C97.5065 355.431 98.3472 355.827 98.8839 356.445C99.4205 357.064 99.6902 357.873 99.8222 358.681C100.172 360.825 99.5974 363.104 98.2727 364.825L98.3996 363.209V363.209Z" fill="#2F2E41"/>
<path d="M95.1834 357.474C93.7273 355.697 90.6915 355.964 89.0739 357.594C87.4564 359.224 87.055 361.739 87.342 364.018C87.6282 366.296 88.8279 375.648 89.2063 377.442C89.6799 379.688 86.1507 381.328 83.8939 380.905C84.0719 382.479 85.1347 383.881 86.5228 384.644C87.9117 385.405 89.5817 385.561 91.1353 385.26C91.7639 385.138 92.3809 384.94 92.9637 384.669C92.7003 383.99 92.5368 383.272 92.4899 382.543C92.7909 383.188 93.2113 383.774 93.7197 384.27C94.546 383.77 95.2742 383.118 95.832 382.331C96.9254 380.789 97.3118 378.729 96.702 376.938C95.9924 374.846 94.1235 373.402 92.7983 371.635C91.4716 369.868 90.7932 367.108 92.4204 365.613C93.6594 364.474 93.5852 364.726 95.2468 364.991L95.1834 357.474L95.1834 357.474Z" fill="#2F2E41"/>
<path d="M117.065 364.939C117.065 370.434 112.61 374.889 107.115 374.889C101.62 374.889 96.3995 368.521 96.3995 363.025C96.3995 357.529 101.62 354.988 107.115 354.988C112.61 354.988 117.065 359.443 117.065 364.939Z" fill="#2F2E41"/>
<path d="M110.115 377.056C115.358 377.056 119.608 372.806 119.608 367.563C119.608 362.32 115.358 358.069 110.115 358.069C104.872 358.069 100.622 362.32 100.622 367.563C100.622 372.806 104.872 377.056 110.115 377.056Z" fill="#FFB6B6"/>
<path d="M122.04 366.087C119.23 366.854 116.393 367.658 115.297 366.087C115.083 365.046 114.681 364.047 114.107 363.155C114 364.158 113.762 365.145 113.406 366.087C112.172 366.309 110.456 366.309 110.456 366.309C110.054 367.001 108.216 368.148 108.151 368.978C108.009 368.886 107.86 368.814 107.707 368.745C107.515 368.664 107.29 368.596 107.102 368.691C106.96 368.764 106.88 368.921 106.853 369.078C106.827 369.235 106.849 369.395 106.876 369.556C106.957 370.096 107.045 370.658 107.355 371.11C107.573 371.431 107.94 371.684 108.315 371.726C108.713 373.965 109.593 376.992 109.593 376.992C100.026 377.375 97.1649 370.312 97.1649 364.173L98.313 361.877H102.14V356.901H112.855C117.926 356.901 122.04 361.016 122.04 366.087L122.04 366.087Z" fill="#2F2E41"/>
<path d="M140.084 439.63C138.136 439.502 136.66 437.819 136.788 435.87C136.801 435.674 136.834 435.484 136.877 435.299L114.2 418.276L120.133 415.644L141.37 432.73C142.894 433.205 143.954 434.671 143.844 436.334C143.716 438.283 142.033 439.758 140.084 439.63Z" fill="#FFB6B6"/>
<path d="M135.351 426.739L134.349 427.082L128.643 429.03C128.643 429.03 128.521 428.973 128.3 428.867C126.026 427.75 113.204 421.384 112.438 419.158C112.063 418.066 110.735 414.455 109.536 410.371C108.974 408.439 108.444 406.393 108.061 404.461C107.442 401.363 107.213 398.542 107.857 396.912C109.748 392.127 114.069 393.358 114.069 393.358L116.726 400.189L120.084 408.822L122.798 415.8C126.369 416.754 130.738 421.237 135.351 426.739H135.351Z" fill="#6C63FF"/>
<path d="M129.042 372.652C128.936 372.652 128.83 372.668 128.732 372.685C128.594 372.53 128.415 372.416 128.195 372.359C128.097 372.326 127.983 372.318 127.868 372.318L120.655 372.505C120.598 372.505 120.532 372.514 120.483 372.522C120.231 372.571 120.011 372.701 119.856 372.88C119.799 372.937 119.75 373.003 119.709 373.076C119.554 373.337 119.513 373.663 119.619 373.989C119.205 377.263 119.36 380.395 120.875 383.192C121.03 383.657 121.478 383.975 121.967 383.967L126.654 383.845C126.678 383.845 126.703 383.845 126.727 383.836C127.192 383.796 127.591 383.478 127.714 383.021C128.862 380.614 129.104 378.246 128.374 375.921C128.602 376.027 128.863 376.084 129.124 376.076C129.808 376.06 130.387 375.644 130.64 375.065C130.746 374.837 130.803 374.584 130.795 374.323C130.77 373.378 129.98 372.628 129.042 372.652H129.042ZM129.116 375.587C128.895 375.595 128.692 375.538 128.512 375.44L128.879 374.128L128.985 373.744C129.042 373.541 129.034 373.337 128.985 373.149C129.01 373.149 129.034 373.141 129.059 373.141C129.727 373.125 130.289 373.663 130.306 374.331C130.306 374.47 130.289 374.609 130.249 374.731C130.094 375.22 129.654 375.57 129.116 375.587Z" fill="#3F3D56"/>
<path d="M120.48 372.524C120.633 373.403 122.361 374.02 124.439 373.913C126.349 373.825 127.912 373.154 128.198 372.359C128.098 372.327 127.986 372.315 127.871 372.315L120.658 372.502C120.596 372.506 120.534 372.51 120.48 372.524Z" fill="#6C63FF"/>
</g>
<defs>
<clipPath id="clip0_74_1740">
<rect width="584" height="494" fill="white"/>
</clipPath>
</defs>
</svg>
