<svg width="238" height="144" viewBox="0 0 238 144" fill="none" xmlns="http://www.w3.org/2000/svg">
<g clip-path="url(#clip0_76_1497)">
<path d="M28.0487 118.651C27.7527 118.513 27.3758 119.29 27.1216 119.152C26.8683 119.014 27.1544 118.195 26.9227 117.125C26.8809 116.933 26.6176 115.717 26.1845 115.662C25.3635 115.556 24.6545 119.709 23.4277 119.673C23.1584 119.665 22.8356 119.455 21.9984 119.398C21.6654 119.375 21.4845 119.392 21.3904 119.532C21.2569 119.731 21.4148 120.002 21.5735 120.675C21.8117 121.683 21.6239 121.779 21.8712 122.532C22.0547 123.09 22.2546 123.33 22.153 123.505C22.0093 123.751 21.5162 123.429 21.3018 123.693C21.083 123.962 21.3019 124.658 21.5307 125.121C21.9601 125.99 22.5483 126.286 23.0444 126.709C23.5835 127.169 24.2657 127.993 24.7641 129.583L28.753 143.886C27.9873 140.903 26.0038 132.622 25.3721 129.448C25.1898 128.532 25.0285 127.582 25.4465 126.77C25.8489 125.988 26.7399 125.428 27.5581 124.232C27.6537 124.092 27.9154 123.7 27.8084 123.437C27.72 123.22 27.4601 123.29 27.3749 123.089C27.2607 122.82 27.6357 122.475 27.9214 121.785C28.1229 121.299 28.1777 120.888 28.2247 120.535C28.2389 120.429 28.4427 118.835 28.0487 118.651L28.0487 118.651H28.0487Z" fill="#F2F2F2"/>
<path d="M18.5888 136.667C18.4458 136.798 18.6618 137.24 18.5306 137.346C18.3999 137.453 18.14 137.051 17.6264 136.876C17.5338 136.845 16.9501 136.646 16.8018 136.88C16.5208 137.322 18.0513 138.929 17.6825 139.626C17.6016 139.779 17.4205 139.905 17.155 140.371C17.0493 140.556 17.0044 140.666 17.0357 140.76C17.0802 140.894 17.2394 140.882 17.566 140.984C18.056 141.138 18.0421 141.274 18.4278 141.349C18.7142 141.404 18.8722 141.358 18.9157 141.467C18.9773 141.621 18.7006 141.812 18.7487 142.012C18.7979 142.216 19.1522 142.29 19.4116 142.292C19.8985 142.295 20.1921 142.041 20.5119 141.878C20.8595 141.699 21.4006 141.544 22.2088 141.715L29.3362 143.543C27.8689 143.123 23.8362 141.877 22.3281 141.326C21.8927 141.167 21.449 140.985 21.2303 140.51C21.0197 140.052 21.043 139.377 20.7792 138.561C20.7484 138.465 20.6598 138.201 20.5193 138.187C20.4032 138.175 20.3574 138.345 20.2489 138.336C20.1033 138.324 20.0674 138.009 19.8617 137.645C19.7166 137.389 19.5607 137.239 19.4267 137.109C19.3863 137.071 18.7793 136.493 18.5888 136.667L18.5888 136.667H18.5888Z" fill="#F2F2F2"/>
<path d="M21.9476 134.826L21.2652 133.998L21.2595 133.893C21.2334 133.409 21.1225 133.015 20.9299 132.719C20.8993 132.672 20.8667 132.627 20.8334 132.581C20.7017 132.399 20.5378 132.172 20.462 131.803C20.4201 131.598 20.3519 131.095 20.6277 130.914C20.7014 130.865 20.7753 130.855 20.8411 130.863C20.8398 130.847 20.8387 130.831 20.8374 130.814C20.8237 130.607 20.8457 130.492 20.867 130.382C20.8833 130.298 20.9003 130.21 20.9031 130.037C20.9043 129.961 20.9022 129.897 20.9006 129.844C20.8957 129.681 20.8971 129.481 21.0458 129.349C21.2088 129.215 21.3916 129.294 21.5126 129.345C21.7286 129.437 21.8583 129.527 21.9442 129.587C21.9755 129.609 22.011 129.633 22.0243 129.638C22.1325 129.68 22.4907 129.224 22.6263 129.054C22.93 128.669 23.1928 128.337 23.4869 128.482C23.6974 128.586 23.7918 128.89 23.7744 129.411C23.7689 129.573 23.7434 129.716 23.7157 129.835C23.7959 129.824 23.884 129.838 23.9649 129.913C24.1563 130.09 24.1403 130.456 23.918 131.001C23.8631 131.137 23.7886 131.319 23.6408 131.509C23.5712 131.598 23.5015 131.667 23.4411 131.725C23.4674 131.769 23.4889 131.822 23.4979 131.888C23.5247 132.084 23.4348 132.271 23.224 132.437C22.9945 132.623 22.7803 132.739 22.5916 132.841C22.4269 132.93 22.2853 133.007 22.1956 133.101C22.031 133.276 22.0042 133.564 21.9862 133.922L21.9476 134.826H21.9476H21.9476Z" fill="#F2F2F2"/>
<path d="M18.8001 129.065L18.2913 130.05L18.2067 130.083C17.8151 130.236 17.5181 130.462 17.3235 130.755C17.2926 130.802 17.2637 130.851 17.2342 130.9C17.1175 131.096 16.9725 131.34 16.6881 131.519C16.5292 131.619 16.1325 131.824 15.9141 131.557C15.8547 131.485 15.8279 131.404 15.8173 131.327C15.8048 131.333 15.7921 131.338 15.7785 131.344C15.611 131.412 15.5112 131.416 15.4151 131.42C15.3412 131.423 15.265 131.425 15.1218 131.466C15.059 131.484 15.007 131.503 14.9632 131.518C14.8305 131.565 14.6651 131.614 14.5192 131.478C14.3676 131.327 14.3855 131.1 14.3973 130.949C14.4182 130.68 14.4594 130.51 14.4868 130.397C14.4968 130.356 14.508 130.31 14.509 130.293C14.5158 130.16 14.0498 129.868 13.875 129.758C13.4813 129.51 13.1407 129.296 13.1859 128.925C13.2181 128.659 13.4447 128.475 13.8781 128.362C14.0131 128.328 14.137 128.32 14.2419 128.322C14.2122 128.233 14.2017 128.13 14.2427 128.019C14.3401 127.756 14.6455 127.682 15.1511 127.796C15.2769 127.824 15.4458 127.862 15.6391 127.982C15.73 128.039 15.805 128.1 15.8683 128.154C15.8972 128.113 15.9355 128.075 15.9881 128.048C16.1426 127.968 16.3188 128.023 16.5091 128.221C16.7209 128.434 16.8702 128.648 17.0021 128.837C17.1174 129.001 17.217 129.142 17.3166 129.221C17.5032 129.363 17.7469 129.32 18.0463 129.25L18.8002 129.065L18.8002 129.065H18.8001Z" fill="#F2F2F2"/>
<path d="M16.6433 126.758L15.9609 125.93L15.9552 125.825C15.9291 125.342 15.8182 124.947 15.6256 124.651C15.595 124.604 15.5624 124.559 15.5291 124.513C15.3974 124.331 15.2335 124.104 15.1577 123.735C15.1158 123.53 15.0476 123.027 15.3234 122.847C15.3971 122.797 15.471 122.787 15.5369 122.795C15.5355 122.779 15.5344 122.763 15.5331 122.746C15.5194 122.539 15.5414 122.424 15.5627 122.314C15.579 122.23 15.596 122.142 15.5988 121.969C15.6 121.893 15.598 121.83 15.5963 121.776C15.5914 121.613 15.5929 121.413 15.7415 121.282C15.9045 121.148 16.0873 121.226 16.2083 121.277C16.4243 121.369 16.554 121.459 16.6399 121.519C16.6713 121.541 16.7067 121.565 16.72 121.571C16.8283 121.612 17.1864 121.157 17.322 120.986C17.6257 120.601 17.8885 120.269 18.1826 120.414C18.3931 120.518 18.4875 120.822 18.4701 121.343C18.4646 121.506 18.4391 121.648 18.4114 121.767C18.4917 121.756 18.5797 121.77 18.6606 121.845C18.8521 122.022 18.836 122.388 18.6137 122.933C18.5588 123.069 18.4843 123.251 18.3366 123.441C18.2669 123.53 18.1972 123.599 18.1368 123.658C18.1631 123.701 18.1847 123.754 18.1936 123.82C18.2204 124.016 18.1305 124.203 17.9197 124.369C17.6902 124.555 17.476 124.671 17.2873 124.773C17.1226 124.862 16.9811 124.939 16.8913 125.033C16.7267 125.208 16.7 125.496 16.6819 125.854L16.6434 126.758H16.6433H16.6433Z" fill="#F2F2F2"/>
<path d="M29.0016 143.637L28.7616 143.665L28.5783 143.481L28.7616 143.665L28.5897 143.861C28.5732 143.843 28.5319 143.805 28.4678 143.745C28.1169 143.417 27.0486 142.417 25.5568 140.669C24.5155 139.449 23.5142 138.131 22.5801 136.753C21.6446 135.373 21.0058 134.265 20.4924 133.374C20.1051 132.703 19.7454 132.055 19.3952 131.424C18.4592 129.738 17.5749 128.145 16.4072 126.553C16.1467 126.198 15.6041 125.458 14.6805 124.985C14.1447 124.711 13.56 124.566 12.9429 124.556L12.9498 123.989C13.6314 124.001 14.2786 124.162 14.8735 124.466C15.8976 124.991 16.4888 125.797 16.7729 126.184C17.9611 127.804 18.8538 129.412 19.7987 131.114C20.1479 131.743 20.5059 132.388 20.8916 133.057C21.4003 133.939 22.0335 135.038 22.9571 136.4C23.8798 137.762 24.869 139.063 25.8971 140.268C27.3701 141.994 28.4226 142.979 28.7683 143.302C28.9528 143.475 28.9915 143.511 29.0016 143.637V143.637L29.0016 143.637Z" fill="#F2F2F2"/>
<path d="M12.7113 125.903C12.6957 125.917 12.6796 125.931 12.6627 125.944C12.3242 126.219 11.8731 126.263 11.3218 126.077C11.0629 125.989 10.8468 125.817 10.4158 125.473C10.3492 125.421 10.0158 125.149 9.63145 124.707C9.38022 124.419 9.29614 124.279 9.27217 124.11C9.24524 123.922 9.28223 123.74 9.35138 123.578C9.31833 123.539 9.29317 123.491 9.27937 123.432C9.22152 123.186 9.41053 123.054 9.51183 122.981C9.56376 122.945 9.62886 122.9 9.69 122.839C9.78649 122.742 9.81732 122.658 9.86438 122.532C9.90935 122.41 9.96527 122.26 10.0866 122.095C10.3248 121.767 10.6248 121.646 10.7237 121.606C11.2426 121.393 11.6938 121.585 12.2162 121.808C12.3207 121.853 12.6914 122.026 13.085 122.366C13.3689 122.611 13.4502 122.761 13.4956 122.886C13.5894 123.143 13.5591 123.366 13.4554 123.892C13.3476 124.442 13.2933 124.718 13.2233 124.919C13.0599 125.386 12.9573 125.68 12.7113 125.903L12.7113 125.903Z" fill="#F2F2F2"/>
<path d="M28.5265 93.0666L34.1058 103.914L66.6196 101.654L57.962 88.5469L28.5265 93.0666Z" fill="#F2F2F2"/>
<path d="M38.2416 143.8C38.0523 143.8 37.8873 143.636 37.8609 143.41L28.1452 60.0606C28.1164 59.8132 28.2637 59.5853 28.4742 59.5515C28.6846 59.5158 28.8787 59.6905 28.9077 59.9379L38.6233 143.287C38.6522 143.534 38.5049 143.762 38.2943 143.796C38.2766 143.799 38.259 143.8 38.2416 143.8Z" fill="#F2F2F2"/>
<path d="M28.5264 143.906C28.3139 143.906 28.1417 143.704 28.1417 143.454V60.0155C28.1417 59.7658 28.3139 59.5635 28.5264 59.5635C28.7389 59.5635 28.9112 59.7659 28.9112 60.0155V143.454C28.9112 143.704 28.7389 143.906 28.5264 143.906Z" fill="#F2F2F2"/>
<path d="M77.2971 143.575C77.1335 143.575 76.9818 143.451 76.9301 143.258L53.9396 57.4232C53.8758 57.1851 53.9884 56.9313 54.1912 56.8563C54.3938 56.7817 54.61 56.9139 54.6736 57.1518L77.6642 142.987C77.728 143.225 77.6153 143.479 77.4126 143.554C77.3742 143.568 77.3353 143.575 77.2971 143.575Z" fill="#F2F2F2"/>
<path d="M70.2747 143.68C70.1029 143.68 69.9464 143.544 69.902 143.34L53.9337 67.5844C53.8814 67.3426 54.0058 67.0965 54.2118 67.0349C54.4183 66.9738 54.6272 67.1197 54.6796 67.3615L70.6479 143.117C70.7002 143.359 70.5758 143.605 70.3698 143.666C70.338 143.676 70.3061 143.68 70.2747 143.68Z" fill="#F2F2F2"/>
<path d="M28.5265 61.3446L55.1724 60.8633L60.0783 93.7443H28.9112L28.5265 61.3446Z" fill="#F2F2F2"/>
<path d="M238 143.447H0V144H238V143.447Z" fill="#E6E6E6"/>
<path d="M48.7983 25.4171C49.6057 25.95 50.9086 23.8421 51.2039 24.8732C51.4992 25.9042 50.784 30.0643 50.4151 31.062C50.2317 31.558 49.9724 32.0115 49.7925 32.5092C49.6125 33.0069 49.516 33.5791 49.6751 34.0865C49.9519 34.9695 50.8654 35.3287 51.3184 36.1048C51.846 37.0087 51.6329 38.2262 51.3863 39.2831C51.1737 40.1941 50.9472 41.1134 50.538 41.9266C50.1288 42.7397 49.5118 43.4478 48.741 43.7169C47.7595 44.0594 46.7105 43.6523 45.7643 43.1927C44.8546 42.7508 43.9547 42.2499 43.181 41.535C42.4073 40.8201 41.7617 39.8712 41.4912 38.7594C41.152 37.3648 41.4354 35.8385 42.0228 34.5627C42.6102 33.2869 43.4791 32.224 44.3707 31.2206C45.8723 29.5305 47.4703 27.9586 49.1505 26.519" fill="#2F2E41"/>
<path d="M53.8092 75.4829L75.3534 85.0687C75.3534 85.0687 77.1487 87.1775 77.4752 90.8201C77.8016 94.4627 83.8405 115.168 83.8405 115.168L78.6177 117.469C78.6177 117.469 69.8041 101.556 70.2938 95.0379C70.2938 95.0379 69.3145 91.9644 68.8249 91.8715C68.3352 91.7787 60.9906 87.3693 56.2574 87.9444C51.5243 88.5196 39.12 90.245 38.7936 83.535C38.4672 76.8249 41.3298 76.8249 41.3298 76.8249L53.8092 75.4829Z" fill="#2F2E41"/>
<path d="M82.698 113.443C82.698 113.443 84.1669 112.867 85.1462 114.018C86.1255 115.168 86.1255 116.127 86.1255 116.127C86.1255 116.127 93.7965 115.935 94.123 117.085C94.4494 118.235 93.3069 122.837 90.5323 123.028C87.7576 123.22 78.2913 125.521 78.2913 123.412C78.2913 121.303 78.4545 116.51 79.1073 116.51C79.7602 116.51 82.698 113.443 82.698 113.443Z" fill="#2F2E41"/>
<path d="M55.6702 81.5801L71.3724 101.382C71.3724 101.382 72.1871 104.207 71.1064 107.642C70.0257 111.078 67.6338 132.783 67.6338 132.783L62.0837 132.129C62.0837 132.129 60.1809 113.278 63.0775 107.688C63.0775 107.688 63.3582 104.423 62.9542 104.085C62.5502 103.747 57.6275 95.973 53.167 94.0265C48.7064 92.08 36.9344 87.1743 39.1715 80.9884C41.4087 74.8024 43.9753 76.2916 43.9753 76.2916L55.6702 81.5801V81.5801Z" fill="#2F2E41"/>
<path d="M67.26 130.643C67.26 130.643 68.7939 130.891 69.2382 132.432C69.6825 133.973 69.3211 134.832 69.3211 134.832C69.3211 134.832 76.2712 138.651 76.1302 139.852C75.9891 141.053 73.2301 144.584 70.6701 143.312C68.1101 142.041 58.7553 139.179 59.5503 137.288C60.3454 135.398 62.2988 131.185 62.8841 131.525C63.4695 131.865 67.26 130.643 67.26 130.643H67.26Z" fill="#2F2E41"/>
<path d="M41.3234 40.8784L46.5463 44.9044L52.4219 55.4488C52.4219 55.4488 53.7276 66.5683 53.238 67.1434C52.7484 67.7186 52.9116 68.2937 52.9116 69.444C52.9116 70.5943 54.1106 70.7166 53.3479 71.7099C52.5851 72.7032 51.9451 72.91 53.0812 73.2859C54.2173 73.6617 55.5371 73.2949 54.8772 74.4369C54.2173 75.5789 54.7069 75.9623 54.3805 76.3457C54.0541 76.7292 40.8406 93.1213 38.3924 86.7947C35.9442 80.4681 35.7742 56.2156 35.7742 56.2156L37.5379 48.3151L41.3234 40.8784V40.8784Z" fill="#CCCCCC"/>
<path d="M25.2313 86.0456C24.6756 88.253 25.1948 90.3792 26.3908 90.7944C27.5868 91.2096 29.0065 89.7567 29.5622 87.5484C29.7945 86.6699 29.8443 85.7387 29.7074 84.833L31.9615 75.445L28.1884 74.2964L26.3668 83.6732C25.8325 84.3461 25.4431 85.1596 25.2313 86.0456Z" fill="#FFB6B6"/>
<path d="M46.7202 54.2106C46.7202 54.2106 40.637 48.7557 38.3214 52.1958C36.0057 55.6359 27.5229 70.908 27.5229 70.908L26.9605 76.728L31.7715 77.9751L39.5474 64.5162L46.7202 54.2106Z" fill="#CCCCCC"/>
<path d="M77.3027 33.0118C78.6977 31.3951 79.1183 29.2391 78.2422 28.1964C77.3661 27.1538 75.5254 27.6193 74.13 29.2369C73.5651 29.874 73.1383 30.6609 72.8853 31.5315L67.0483 38.4694L69.8784 41.6175L75.3322 34.4437C76.077 34.1581 76.7526 33.6671 77.3027 33.0118Z" fill="#FFB6B6"/>
<path d="M45.3894 48.676C45.3894 48.676 48.4693 56.9056 51.9122 55.2092C55.3552 53.5129 69.0664 44.9614 69.0664 44.9614L71.9541 40.186L68.256 36.3623L55.9098 43.7281L45.3894 48.676V48.676Z" fill="#CCCCCC"/>
<path d="M46.7817 39.2424C50.017 39.2424 52.6397 36.1617 52.6397 32.3614C52.6397 28.5612 50.017 25.4805 46.7817 25.4805C43.5464 25.4805 40.9237 28.5612 40.9237 32.3614C40.9237 36.1617 43.5464 39.2424 46.7817 39.2424Z" fill="#FFB6B6"/>
<path d="M40.178 43.1379C41.5453 45.4289 42.2445 48.2596 42.1335 51.0544C43.6838 50.1723 44.73 48.3087 45.0861 46.329C45.4422 44.3494 45.1706 42.2708 44.5983 40.3624C44.5926 40.3433 44.5869 40.3243 44.5811 40.3052C43.7122 37.4407 44.5195 34.2392 46.6181 32.4586C48.0336 31.2575 49.2612 29.7506 50.2035 28.0233C50.7354 27.0482 51.1875 25.825 50.7902 24.7651C50.424 23.7884 49.478 23.332 48.6075 23.0265C46.6198 22.3291 44.5078 21.9323 42.4675 22.3736C40.4273 22.8149 38.4632 24.1931 37.499 26.3507C36.5347 28.5083 36.7873 31.4528 38.3524 33.0523C37.8588 33.2398 37.5095 33.8544 37.5515 34.4618C37.5934 35.0692 38.0224 35.6096 38.5353 35.7012C38.2006 35.6873 38.0031 36.205 38.1224 36.5725C38.2418 36.9399 38.5495 37.1682 38.8431 37.3574C39.2613 37.6268 39.7248 37.9085 39.7266 38.6141C39.7273 38.897 39.6414 39.1716 39.5011 39.4015C39.1611 39.9587 38.612 40.2096 38.0835 40.4452C39.2013 40.8319 40.0927 42.0055 40.2928 43.354" fill="#2F2E41"/>
<path d="M88.8047 41.2663C98.5051 41.2663 106.369 32.0293 106.369 20.6348C106.369 9.24042 98.5051 0.00341797 88.8047 0.00341797C79.1042 0.00341797 71.2405 9.24042 71.2405 20.6348C71.2405 32.0293 79.1042 41.2663 88.8047 41.2663Z" fill="#2B6CB0"/>
<path d="M87.8943 20.7321L86.2173 32.415L87.9605 32.7603L89.6375 21.0774L87.8943 20.7321Z" fill="white"/>
<path d="M94.3957 27.934L88.4028 23.434L81.485 25.3769L90.5206 8.68066L94.3957 27.934Z" fill="white"/>
<path d="M199.55 121.314C199.809 121.193 200.139 121.874 200.361 121.753C200.583 121.632 200.333 120.914 200.535 119.978C200.572 119.81 200.803 118.746 201.182 118.697C201.9 118.605 202.521 122.24 203.595 122.209C203.831 122.202 204.113 122.018 204.846 121.967C205.138 121.947 205.296 121.963 205.378 122.085C205.495 122.259 205.357 122.497 205.218 123.085C205.01 123.968 205.174 124.052 204.958 124.711C204.797 125.2 204.622 125.41 204.711 125.563C204.837 125.779 205.268 125.497 205.456 125.728C205.648 125.963 205.456 126.573 205.256 126.978C204.88 127.738 204.365 127.998 203.931 128.368C203.459 128.771 202.861 129.492 202.425 130.884L198.933 143.405C199.604 140.794 201.34 133.544 201.893 130.766C202.052 129.964 202.194 129.132 201.828 128.421C201.475 127.737 200.696 127.247 199.979 126.2C199.896 126.077 199.666 125.733 199.76 125.504C199.838 125.314 200.065 125.375 200.14 125.199C200.24 124.963 199.911 124.662 199.661 124.058C199.485 123.632 199.437 123.272 199.396 122.963C199.383 122.87 199.205 121.475 199.55 121.314V121.314V121.314Z" fill="#F2F2F2"/>
<path d="M207.831 137.086C207.956 137.2 207.767 137.587 207.882 137.68C207.996 137.773 208.224 137.422 208.673 137.269C208.755 137.241 209.266 137.067 209.395 137.271C209.641 137.659 208.302 139.066 208.624 139.676C208.695 139.81 208.854 139.92 209.086 140.328C209.179 140.49 209.218 140.586 209.191 140.669C209.152 140.786 209.012 140.775 208.726 140.865C208.297 140.999 208.31 141.118 207.972 141.184C207.721 141.232 207.583 141.192 207.545 141.287C207.491 141.422 207.733 141.589 207.691 141.764C207.648 141.943 207.338 142.008 207.111 142.009C206.685 142.012 206.427 141.79 206.147 141.647C205.843 141.491 205.37 141.354 204.662 141.505L198.423 143.104C199.707 142.737 203.237 141.646 204.558 141.164C204.939 141.024 205.327 140.866 205.519 140.45C205.703 140.049 205.683 139.458 205.914 138.743C205.94 138.659 206.018 138.428 206.141 138.416C206.243 138.406 206.283 138.555 206.378 138.547C206.505 138.536 206.537 138.26 206.717 137.942C206.844 137.717 206.98 137.586 207.097 137.473C207.133 137.439 207.664 136.933 207.831 137.086V137.086L207.831 137.086Z" fill="#F2F2F2"/>
<path d="M204.891 135.473L205.488 134.748L205.493 134.657C205.516 134.234 205.613 133.888 205.782 133.629C205.808 133.588 205.837 133.549 205.866 133.508C205.981 133.349 206.125 133.15 206.191 132.828C206.228 132.647 206.288 132.207 206.046 132.049C205.982 132.006 205.917 131.998 205.859 132.004C205.86 131.99 205.861 131.977 205.863 131.962C205.875 131.78 205.855 131.68 205.837 131.583C205.822 131.509 205.808 131.433 205.805 131.281C205.804 131.215 205.806 131.159 205.807 131.112C205.812 130.97 205.81 130.794 205.68 130.679C205.537 130.562 205.377 130.63 205.271 130.676C205.082 130.756 204.969 130.835 204.894 130.887C204.866 130.906 204.835 130.928 204.824 130.932C204.729 130.969 204.415 130.57 204.297 130.421C204.031 130.084 203.801 129.793 203.543 129.92C203.359 130.011 203.276 130.277 203.291 130.734C203.296 130.876 203.319 131 203.343 131.104C203.273 131.094 203.196 131.107 203.125 131.173C202.957 131.328 202.971 131.648 203.166 132.126C203.214 132.244 203.279 132.404 203.408 132.57C203.469 132.647 203.53 132.708 203.583 132.759C203.56 132.797 203.541 132.844 203.534 132.902C203.51 133.073 203.589 133.237 203.773 133.382C203.974 133.545 204.162 133.646 204.327 133.736C204.471 133.814 204.595 133.881 204.674 133.963C204.818 134.117 204.841 134.369 204.857 134.682L204.891 135.473H204.891H204.891Z" fill="#F2F2F2"/>
<path d="M207.646 130.43L208.091 131.293L208.165 131.321C208.508 131.455 208.768 131.653 208.939 131.91C208.966 131.951 208.991 131.993 209.017 132.037C209.119 132.208 209.246 132.421 209.495 132.579C209.634 132.666 209.981 132.846 210.172 132.611C210.224 132.549 210.248 132.478 210.257 132.411C210.268 132.415 210.279 132.42 210.291 132.425C210.438 132.485 210.525 132.488 210.609 132.491C210.674 132.494 210.741 132.497 210.866 132.532C210.921 132.548 210.967 132.564 211.005 132.578C211.121 132.619 211.266 132.662 211.393 132.543C211.526 132.411 211.511 132.211 211.5 132.08C211.482 131.844 211.446 131.695 211.422 131.597C211.413 131.561 211.403 131.52 211.402 131.506C211.396 131.389 211.804 131.134 211.957 131.037C212.302 130.82 212.6 130.632 212.561 130.308C212.533 130.075 212.334 129.914 211.955 129.815C211.837 129.785 211.728 129.778 211.636 129.78C211.662 129.702 211.671 129.611 211.636 129.514C211.55 129.285 211.283 129.219 210.84 129.319C210.73 129.344 210.582 129.377 210.413 129.482C210.334 129.532 210.268 129.586 210.213 129.633C210.187 129.597 210.154 129.564 210.108 129.54C209.972 129.47 209.818 129.518 209.652 129.691C209.466 129.878 209.335 130.065 209.22 130.23C209.119 130.374 209.032 130.498 208.945 130.566C208.781 130.691 208.568 130.654 208.306 130.592L207.646 130.43L207.646 130.43V130.43Z" fill="#F2F2F2"/>
<path d="M209.534 128.411L210.131 127.686L210.136 127.594C210.159 127.171 210.256 126.825 210.425 126.567C210.452 126.526 210.48 126.486 210.509 126.446C210.625 126.286 210.768 126.088 210.835 125.765C210.871 125.585 210.931 125.145 210.69 124.987C210.625 124.944 210.56 124.935 210.503 124.942C210.504 124.928 210.505 124.914 210.506 124.899C210.518 124.718 210.499 124.617 210.48 124.521C210.466 124.447 210.451 124.37 210.448 124.219C210.447 124.152 210.449 124.097 210.451 124.05C210.455 123.907 210.454 123.732 210.324 123.617C210.181 123.5 210.021 123.568 209.915 123.613C209.726 123.694 209.612 123.772 209.537 123.825C209.51 123.844 209.479 123.865 209.467 123.87C209.372 123.906 209.059 123.507 208.94 123.358C208.674 123.022 208.444 122.73 208.187 122.858C208.002 122.949 207.92 123.215 207.935 123.671C207.94 123.813 207.962 123.938 207.986 124.042C207.916 124.032 207.839 124.045 207.768 124.11C207.601 124.265 207.615 124.586 207.809 125.063C207.857 125.182 207.922 125.341 208.052 125.507C208.113 125.585 208.174 125.646 208.227 125.697C208.204 125.735 208.185 125.781 208.177 125.839C208.154 126.011 208.232 126.174 208.417 126.319C208.618 126.483 208.805 126.584 208.97 126.673C209.115 126.751 209.238 126.819 209.317 126.901C209.461 127.055 209.485 127.306 209.5 127.62L209.534 128.411Z" fill="#F2F2F2"/>
<path d="M198.716 143.187L198.926 143.211L199.086 143.05L198.926 143.211L199.076 143.383C199.091 143.368 199.127 143.334 199.183 143.282C199.49 142.994 200.425 142.119 201.731 140.589C202.643 139.52 203.519 138.367 204.337 137.161C205.156 135.953 205.715 134.983 206.165 134.203C206.504 133.615 206.819 133.048 207.125 132.495C207.944 131.019 208.719 129.625 209.741 128.232C209.969 127.921 210.444 127.273 211.252 126.859C211.721 126.619 212.233 126.492 212.773 126.483L212.767 125.987C212.171 125.998 211.604 126.138 211.083 126.405C210.187 126.864 209.669 127.57 209.421 127.909C208.38 129.327 207.599 130.734 206.772 132.224C206.466 132.775 206.153 133.34 205.815 133.925C205.37 134.697 204.815 135.659 204.007 136.852C203.199 138.044 202.333 139.183 201.433 140.238C200.144 141.748 199.222 142.611 198.92 142.894C198.758 143.045 198.724 143.077 198.716 143.187V143.187Z" fill="#F2F2F2"/>
<path d="M212.976 127.662C212.99 127.675 213.004 127.687 213.019 127.699C213.315 127.939 213.71 127.977 214.192 127.815C214.419 127.738 214.608 127.587 214.986 127.286C215.044 127.24 215.336 127.002 215.672 126.615C215.892 126.363 215.966 126.241 215.987 126.093C216.01 125.928 215.978 125.769 215.917 125.627C215.946 125.593 215.968 125.551 215.98 125.499C216.031 125.284 215.866 125.168 215.777 125.104C215.732 125.073 215.675 125.034 215.621 124.98C215.537 124.895 215.51 124.822 215.468 124.711C215.429 124.605 215.38 124.473 215.274 124.328C215.065 124.042 214.803 123.936 214.716 123.901C214.262 123.714 213.867 123.883 213.41 124.078C213.318 124.117 212.994 124.268 212.649 124.566C212.4 124.781 212.329 124.912 212.29 125.022C212.207 125.246 212.234 125.441 212.325 125.902C212.419 126.383 212.467 126.625 212.528 126.801C212.671 127.21 212.761 127.467 212.976 127.662V127.662Z" fill="#F2F2F2"/>
<path d="M144.445 140.67L140.729 139.66L142.279 122.34L147.764 123.832L144.445 140.67Z" fill="#A0616A"/>
<path d="M131.731 137.11C131.571 137.307 131.364 138.029 131.311 138.295C131.15 139.114 131.584 139.931 132.281 140.12L143.791 143.249C144.266 143.378 144.74 143.031 144.85 142.472L144.961 141.909C144.961 141.909 145.864 140.373 145.102 137.969C145.102 137.969 143.324 139.205 141.651 136.056L141.278 134.516L135.844 137.244L133.195 136.917C132.615 136.845 132.134 136.615 131.731 137.11L131.731 137.109V137.11Z" fill="#2F2E41"/>
<path d="M183.445 131.335L180.682 134.425L169.22 123.379L173.298 118.818L183.445 131.335Z" fill="#A0616A"/>
<path d="M173.92 141.849C173.972 142.115 174.372 142.715 174.532 142.913C175.025 143.521 175.845 143.545 176.363 142.966L184.918 133.396C185.271 133.001 185.285 132.344 184.949 131.929L184.609 131.511C184.609 131.511 184.013 129.78 181.885 129.205C181.885 129.205 181.786 131.63 178.627 131.539L177.327 131.057L176.278 137.888L174.588 140.307C174.218 140.836 173.79 141.182 173.92 141.849L173.92 141.849V141.849Z" fill="#2F2E41"/>
<path d="M199.132 98.9175L194.247 108.413L165.785 106.435L173.364 94.9609L199.132 98.9175Z" fill="#F2F2F2"/>
<path d="M190.627 143.33C190.793 143.33 190.937 143.186 190.96 142.988L199.465 70.024C199.49 69.8074 199.362 69.6078 199.177 69.5783C198.993 69.547 198.823 69.7 198.798 69.9166L190.293 142.88C190.267 143.097 190.396 143.297 190.581 143.326C190.596 143.329 190.612 143.33 190.627 143.33Z" fill="#F2F2F2"/>
<path d="M199.132 143.423C199.318 143.423 199.468 143.246 199.468 143.027V69.9845C199.468 69.766 199.318 69.5889 199.132 69.5889C198.946 69.5889 198.795 69.766 198.795 69.9845V143.027C198.795 143.246 198.946 143.423 199.132 143.423Z" fill="#F2F2F2"/>
<path d="M156.438 143.132C156.581 143.132 156.714 143.024 156.759 142.855L176.885 67.7152C176.941 67.5068 176.842 67.2846 176.665 67.2189C176.487 67.1536 176.298 67.2693 176.242 67.4776L156.116 142.618C156.06 142.826 156.159 143.048 156.336 143.114C156.37 143.126 156.404 143.132 156.438 143.132Z" fill="#F2F2F2"/>
<path d="M162.585 143.225C162.735 143.225 162.872 143.106 162.911 142.927L176.89 76.6104C176.936 76.3987 176.827 76.1833 176.647 76.1294C176.466 76.0759 176.283 76.2036 176.237 76.4153L162.258 142.732C162.213 142.943 162.321 143.159 162.502 143.213C162.53 143.221 162.558 143.225 162.585 143.225H162.585Z" fill="#F2F2F2"/>
<path d="M199.132 71.1479L175.806 70.7266L171.511 99.5107H198.795L199.132 71.1479Z" fill="#F2F2F2"/>
<path d="M190.168 90.3998C190.168 90.3998 194.225 102.219 186.723 104.915C179.221 107.611 168.41 111.42 168.41 111.42L180.84 125.551L174.712 130.151C174.712 130.151 152.106 111.963 152.106 107.611C152.106 103.259 170.632 91.9824 170.632 91.9824L180.84 87.6987L190.168 90.3998Z" fill="#2F2E41"/>
<path d="M166.554 87.6987C166.554 87.6987 145.729 89.4949 144.16 94.2501C142.59 99.0054 139.458 123.588 139.458 123.588L150.404 125.869L153.67 104.915L183.637 92.3887L166.554 87.6987Z" fill="#2F2E41"/>
<path d="M155.442 60.6866L160.941 52.79L167.015 57.4693C167.015 57.4693 189.904 74.9369 190.85 91.3275C190.85 91.3275 181.641 101.733 169.824 88.664L161.261 85.9963L155.442 60.6866H155.442Z" fill="#CCCCCC"/>
<path d="M131.02 93.53C129.193 94.3377 127.358 93.8855 126.92 92.5201C126.482 91.1548 127.609 89.3932 129.435 88.5856C130.235 88.2321 131.036 88.12 131.721 88.2202L139.497 84.9121L140.741 89.2317L132.943 92.0343C132.484 92.6402 131.819 93.1765 131.02 93.53H131.02Z" fill="#A0616A"/>
<path d="M157.278 61.3725L155.442 60.6865L150.193 79.5268L132.242 87.2617L133.388 92.4552L153.801 86.7331L161.68 77.7081L157.278 61.3725Z" fill="#CCCCCC"/>
<path d="M153.924 55.0673C157.52 55.0673 160.436 51.6427 160.436 47.4182C160.436 43.1937 157.52 39.769 153.924 39.769C150.327 39.769 147.412 43.1937 147.412 47.4182C147.412 51.6427 150.327 55.0673 153.924 55.0673Z" fill="#A0616A"/>
<path d="M160.373 41.6536C160.373 41.6536 158.679 35.2285 153.061 36.0867C153.061 36.0867 151.926 37.3876 150.966 37.1852C150.007 36.9828 148.208 40.3445 147.728 40.3374C147.247 40.3303 146.44 40.8831 147.241 40.8949C148.042 40.9067 148.915 40.449 147.799 41.1855C146.682 41.922 145.941 42.5698 146.738 42.9581C147.535 43.3463 147.688 42.3133 146.653 43.4274C145.618 44.5416 146.247 43.892 146.722 44.4637C147.197 45.0355 146.45 48.1511 146.45 48.1511C146.45 48.1511 146.387 45.7765 149.111 45.8167C151.835 45.8569 153.59 46.6358 154.401 45.7066C155.212 44.7774 156.403 46.2119 157.152 47.1145C157.902 48.0171 158.544 47.8384 158.544 47.8384L157.857 52.1577C157.857 52.1577 160.664 51.9235 160.843 50.2253C161.021 48.5271 160.319 46.7352 160.806 46.1777C161.293 45.6201 160.373 41.6536 160.373 41.6536V41.6536Z" fill="#2F2E41"/>
<path d="M127.69 92.0044C136.181 92.0044 143.065 83.9183 143.065 73.9436C143.065 63.9689 136.181 55.8828 127.69 55.8828C119.198 55.8828 112.314 63.9689 112.314 73.9436C112.314 83.9183 119.198 92.0044 127.69 92.0044Z" fill="#2B6CB0"/>
<path d="M128.486 74.0293L126.96 74.3315L128.428 84.5588L129.955 84.2566L128.486 74.0293Z" fill="white"/>
<path d="M122.795 80.3339L128.041 76.3946L134.097 78.0954L126.187 63.4795L122.795 80.3339Z" fill="white"/>
<path d="M132.211 83.2577C130.259 83.259 128.677 82.0773 128.676 80.6184C128.675 79.1595 130.257 77.9759 132.209 77.9746C133.063 77.9741 133.847 78.2002 134.458 78.577L142.728 78.6937L142.599 83.2511L134.46 82.6524C133.849 83.03 133.065 83.2572 132.211 83.2577V83.2577Z" fill="#A0616A"/>
<path d="M163.646 60.771V60.771C167.641 65.9001 168.132 73.573 164.834 79.3455L158.212 86.4611L136.978 84.0946L137.426 78.2561L152.433 77.3078L163.646 60.771Z" fill="#CCCCCC"/>
</g>
<defs>
<clipPath id="clip0_76_1497">
<rect width="238" height="144" fill="white"/>
</clipPath>
</defs>
</svg>
