<svg width="558" height="403" viewBox="0 0 558 403" fill="none" xmlns="http://www.w3.org/2000/svg">
<g clip-path="url(#clip0_76_1625)">
<path d="M451.582 256.427C452.081 256.474 452.582 256.365 453.017 256.115C453.452 255.865 453.801 255.486 454.015 255.03C454.23 254.574 454.3 254.062 454.216 253.564C454.133 253.067 453.899 252.607 453.548 252.247C453.497 251.998 453.462 251.819 453.411 251.569C453.436 251.517 453.46 251.464 453.485 251.412C454.044 250.237 454.935 249.254 456.047 248.588C457.158 247.922 458.44 247.601 459.731 247.666C461.023 247.732 462.266 248.18 463.306 248.956C464.345 249.731 465.134 250.799 465.573 252.024C467.329 256.916 469.624 261.841 470.01 266.945C470.179 269.2 469.959 271.469 469.359 273.649C474.475 263.658 477.399 252.675 477.933 241.445C478.064 238.627 478.039 235.803 477.857 232.988C477.706 230.68 477.455 228.384 477.104 226.099C475.182 213.702 470.369 201.941 463.061 191.782C459.4 189.54 456.509 186.222 454.777 182.274C454.149 180.854 453.729 179.351 453.529 177.81C453.95 177.885 454.379 177.941 454.801 177.989C454.933 178.002 455.071 178.015 455.203 178.028L455.253 178.033C455.717 178.076 456.185 177.983 456.598 177.764C457.011 177.546 457.353 177.212 457.582 176.802C457.811 176.392 457.918 175.925 457.89 175.455C457.861 174.986 457.699 174.535 457.422 174.156C457.25 173.921 457.077 173.686 456.904 173.45C456.643 173.087 456.374 172.731 456.112 172.368C456.082 172.333 456.053 172.297 456.027 172.259C455.725 171.845 455.424 171.438 455.123 171.024C455.748 170.139 456.568 169.411 457.518 168.898C460.808 167.158 465.165 168.675 467.344 171.702C469.529 174.73 469.777 178.845 468.803 182.455C467.867 185.521 466.421 188.404 464.525 190.981C464.688 191.213 464.859 191.438 465.022 191.67C468.006 195.933 470.569 200.48 472.673 205.246C472.35 200.002 473.267 194.755 475.349 189.938C477.44 185.456 481.142 181.772 484.428 177.966C488.375 173.395 495.923 175.825 496.302 181.872C496.306 181.93 496.309 181.989 496.312 182.047C495.839 182.288 495.375 182.545 494.92 182.818C494.348 183.166 493.894 183.679 493.617 184.291C493.339 184.903 493.252 185.586 493.366 186.249C493.48 186.912 493.79 187.524 494.255 188.007C494.721 188.489 495.32 188.819 495.975 188.952L496.042 188.966C495.8 190.632 495.433 192.278 494.944 193.888C493.535 198.381 491.22 202.533 488.143 206.083C485.067 209.632 481.297 212.503 477.068 214.515C476.791 214.643 476.52 214.77 476.243 214.891C478.266 221.655 479.407 228.655 479.639 235.716C479.762 239.881 479.551 244.05 479.007 248.181L479.035 248.035C480.137 243.465 482.771 239.418 486.491 236.578C492.013 232.425 499.603 231.156 505.504 227.886C506.132 227.52 506.851 227.343 507.576 227.375C508.301 227.407 509.001 227.647 509.595 228.068C510.188 228.488 510.65 229.07 510.926 229.747C511.202 230.423 511.28 231.164 511.152 231.884C511.142 231.935 511.131 231.986 511.121 232.037C510.25 232.348 509.398 232.714 508.571 233.131C508.098 233.372 507.634 233.629 507.179 233.902C506.607 234.249 506.153 234.763 505.876 235.375C505.598 235.987 505.511 236.669 505.625 237.332C505.739 237.995 506.049 238.608 506.514 239.091C506.98 239.573 507.579 239.902 508.234 240.036L508.301 240.049C508.349 240.059 508.39 240.068 508.439 240.077C506.815 243.525 504.614 246.666 501.932 249.361C498.623 252.621 494.688 255.166 490.369 256.839C486.049 258.512 481.436 259.279 476.812 259.091L476.805 259.091C475.296 264.527 473.231 269.79 470.642 274.796L451.262 273.887C451.202 273.667 451.15 273.44 451.098 273.22C452.886 273.418 454.692 273.394 456.475 273.15C455.12 271.304 453.764 269.445 452.409 267.599C452.378 267.564 452.35 267.528 452.323 267.49C451.636 266.546 450.941 265.608 450.254 264.664L450.254 264.663C450.344 261.872 450.79 259.104 451.581 256.427L451.582 256.427Z" fill="#F2F2F2"/>
<path d="M61.0903 87.5493C60.5953 87.6269 60.0886 87.5492 59.6388 87.3269C59.1891 87.1046 58.818 86.7483 58.5759 86.3063C58.3338 85.8643 58.2323 85.3581 58.2853 84.8561C58.3383 84.3541 58.5431 83.8806 58.8721 83.4998C58.9068 83.2478 58.9318 83.0668 58.9665 82.8148C58.9389 82.7638 58.9111 82.7129 58.8831 82.662C58.2532 81.524 57.3035 80.5989 56.1535 80.003C55.0035 79.4071 53.7044 79.1669 52.4194 79.3127C51.1344 79.4584 49.9207 79.9835 48.9309 80.8221C47.9411 81.6606 47.2193 82.7752 46.856 84.0259C45.4037 89.0177 43.4146 94.0766 43.3428 99.1942C43.312 101.456 43.6709 103.706 44.4034 105.845C38.6847 96.1913 35.0927 85.4115 33.8708 74.2364C33.5671 71.4318 33.4192 68.6123 33.4279 65.7911C33.4371 63.478 33.5471 61.1704 33.7579 58.8681C34.916 46.375 38.9985 34.3368 45.67 23.7423C49.1863 21.2771 51.8684 17.785 53.3546 13.7365C53.8941 12.2806 54.2217 10.7537 54.3272 9.20324C53.9115 9.30519 53.4867 9.387 53.068 9.46106C52.9373 9.48239 52.7999 9.50453 52.6692 9.52592L52.6199 9.53359C52.1587 9.60535 51.6868 9.54124 51.2609 9.34898C50.835 9.15673 50.4734 8.84453 50.2195 8.44996C49.9656 8.05539 49.8303 7.59527 49.8299 7.12502C49.8294 6.65476 49.9639 6.1944 50.2171 5.79936C50.3748 5.5536 50.5326 5.30794 50.6905 5.06239C50.9295 4.68373 51.1761 4.31131 51.415 3.93272C51.4433 3.89613 51.4696 3.85793 51.4936 3.81831C51.7688 3.38636 52.0446 2.96141 52.3198 2.52946C51.6413 1.68519 50.7785 1.01026 49.7986 0.557286C46.4086 -0.974317 42.1525 0.810295 40.164 3.96761C38.1686 7.12563 38.173 11.2488 39.3666 14.7904C40.4885 17.7923 42.1093 20.5799 44.1596 23.0337C44.0107 23.2756 43.8543 23.5113 43.7056 23.7532C40.9881 28.1932 38.709 32.891 36.901 37.7791C36.9019 32.5249 35.6649 27.3456 33.2919 22.6672C30.9297 18.3236 27.0091 14.877 23.4962 11.2832C19.2766 6.96645 11.8919 9.86165 11.8846 15.9209C11.8845 15.9796 11.8846 16.0382 11.8848 16.0968C12.3717 16.3073 12.8506 16.5349 13.3216 16.7796C13.9137 17.0907 14.3987 17.5748 14.7131 18.1684C15.0274 18.762 15.1565 19.4375 15.0834 20.1064C15.0104 20.7752 14.7385 21.4062 14.3034 21.9167C13.8684 22.4271 13.2905 22.7933 12.6454 22.9671L12.5794 22.9849C12.9226 24.6331 13.3897 26.2526 13.9766 27.8294C15.6587 32.2266 18.224 36.2262 21.5119 39.5775C24.7998 42.9287 28.7392 45.5594 33.0832 47.3045C33.3679 47.4143 33.6457 47.5248 33.9296 47.6277C32.3253 54.5049 31.6152 61.5632 31.8171 68.625C31.9495 72.7898 32.4159 76.937 33.2117 81.0261L33.1751 80.8821C31.7948 76.3894 28.9182 72.5145 25.0311 69.9116C19.2647 66.1099 11.6119 65.316 5.52108 62.4198C4.87179 62.0936 4.14348 61.9614 3.42206 62.0387C2.70065 62.116 2.0162 62.3995 1.44947 62.856C0.882727 63.3124 0.457328 63.9226 0.223445 64.6146C-0.0104388 65.3067 -0.0430545 66.0517 0.129448 66.7618C0.142634 66.8122 0.155958 66.8626 0.169409 66.913C1.05841 67.1691 1.93071 67.4807 2.78126 67.8461C3.26815 68.0567 3.74708 68.2843 4.21804 68.5289C4.81011 68.84 5.29511 69.3241 5.60949 69.9178C5.92387 70.5114 6.05297 71.1869 5.97988 71.8557C5.90678 72.5246 5.63491 73.1556 5.19987 73.666C4.76483 74.1765 4.18691 74.5427 3.54185 74.7165L3.47574 74.7343C3.42811 74.7465 3.38737 74.7581 3.33982 74.7704C5.17212 78.1107 7.56134 81.1084 10.4028 83.6319C13.9055 86.6797 17.989 88.9744 22.403 90.3754C26.817 91.7764 31.4684 92.2541 36.0721 91.7793L36.079 91.7785C37.9181 97.1103 40.3021 102.235 43.1926 107.07L62.4801 104.956C62.5259 104.732 62.5641 104.503 62.603 104.28C60.8299 104.589 59.026 104.678 57.2315 104.545C58.4715 102.618 59.71 100.678 60.95 98.7516C60.9784 98.715 61.0046 98.6768 61.0286 98.6372C61.6567 97.6521 62.2925 96.6731 62.9206 95.6879L62.9209 95.6868C62.66 92.9065 62.0449 90.1717 61.0909 87.5497L61.0903 87.5493Z" fill="#F2F2F2"/>
<path d="M327.563 80.3466C328.518 80.6113 329.403 81.0837 330.157 81.7306C330.911 82.3774 331.515 83.183 331.927 84.0905C332.338 84.998 332.547 85.9854 332.539 86.9831C332.531 87.9809 332.306 88.9647 331.88 89.8653L342.23 101.461L336.771 109.518L322.383 92.9356C320.929 92.1138 319.825 90.783 319.279 89.1956C318.734 87.6081 318.786 85.8742 319.424 84.3225C320.063 82.7707 321.244 81.5089 322.744 80.7761C324.244 80.0433 325.959 79.8905 327.563 80.3466V80.3466Z" fill="#A0616A"/>
<path d="M424.46 108.821C423.527 107.29 422.303 105.96 420.859 104.908C419.415 103.855 417.779 103.1 416.044 102.686C414.31 102.271 412.511 102.206 410.752 102.494C408.993 102.782 407.307 103.417 405.791 104.363L371.752 125.607L335.034 94.1548L325.899 102.726L366.462 155.76L419.182 128.064C417.951 128.711 425.946 111.259 424.46 108.821Z" fill="#CCCCCC"/>
<path d="M357.027 179.46C357.03 196.401 353.722 213.176 347.29 228.829C340.858 244.481 331.429 258.703 319.541 270.682C307.654 282.661 293.541 292.162 278.009 298.644C262.476 305.125 245.829 308.46 229.017 308.456C158.32 308.456 101.008 250.702 101.008 179.46C100.996 165.602 103.2 151.833 107.536 138.682C116.05 112.999 132.36 90.6628 154.16 74.8317C175.96 59.0005 202.147 50.4758 229.017 50.4629C252.192 50.4548 274.933 56.7885 294.815 68.788C314.696 80.7875 330.97 98.0022 341.901 118.595C344.611 123.675 346.975 128.936 348.977 134.339C349.254 135.092 349.524 135.844 349.787 136.604V136.611C350.961 139.951 351.994 143.352 352.888 146.816C355.645 157.475 357.036 168.445 357.027 179.46V179.46Z" fill="#3F3D56"/>
<path d="M215.012 92.4269C209.259 89.292 202.872 87.5224 196.338 87.253C189.803 86.9836 183.294 88.2215 177.306 90.8724C172.034 93.1844 166.483 97.332 164.724 104.822C171.837 100.591 181.045 107.275 182.875 117.997L182.448 118.116C181.481 125.542 183.639 133.628 187.818 138.233C188.366 133.449 191.487 130.194 194.557 128.16C197.627 126.127 201.023 124.65 203.366 121.154C206.143 117.01 206.849 110.954 207.952 105.429C209.056 99.9045 211.149 93.9664 215.012 92.4269Z" fill="white"/>
<path d="M175.196 155.624C173.226 158.605 170.595 160.476 168.234 162.805C165.88 165.141 163.64 168.294 163.171 172.344C162.872 174.938 163.334 177.575 163.27 180.198C163.206 182.821 162.339 185.774 160.568 186.426C157.773 187.443 155.639 182.212 152.766 181.846C150.483 181.56 148.428 185.179 149.09 188.318C149.751 191.457 152.859 192.847 154.644 190.797C156.258 193.528 155.12 198.48 152.695 199.318C152.439 201.038 152.183 202.751 151.934 204.471C145.804 200.149 139.61 195.756 134.397 189.428C128.599 182.45 125.003 173.885 124.071 164.833C123.395 157.559 124.398 149.239 121.084 143.642C118.431 139.163 113.88 138.174 109.783 138.453C109.037 138.503 108.283 138.589 107.536 138.683C109.952 131.371 113.02 124.295 116.703 117.541C117.537 117.181 118.311 116.695 119 116.101C122.812 112.84 124.505 106.24 127.598 101.675C127.797 101.381 128.004 101.094 128.217 100.815C131.382 96.6511 135.62 94.5083 139.716 92.516C148.784 88.08 158.114 83.5866 167.687 84.2029L164.963 84.4681C161.784 93.4405 158.603 102.413 155.419 111.385C154.935 112.761 154.447 114.14 153.954 115.521C152.148 120.623 150.284 126.055 150.562 131.767C150.725 135.149 151.892 138.761 154.11 139.922C156.18 140.997 158.441 139.679 160.44 138.374C161.286 137.83 162.125 137.285 162.972 136.733C166.008 134.762 169.372 132.742 172.579 134.06C175.516 135.264 177.685 139.285 178.098 143.62C178.476 147.835 177.456 152.057 175.196 155.624V155.624Z" fill="white"/>
<path d="M193.257 216.881C184.388 211.378 175.519 205.875 166.65 200.373L166.801 199.982C161.287 202.098 158.997 211.976 159.908 220.054C160.82 228.131 163.91 235.352 165.471 243.223C167.576 253.994 166.781 265.136 163.17 275.493C174.832 262.307 185.153 247.975 193.978 232.714C195.211 230.79 196.15 228.691 196.764 226.487C197.328 224.142 197.241 221.322 196.113 219.441C195.387 218.362 194.405 217.482 193.257 216.881V216.881Z" fill="white"/>
<path d="M158.254 116.768C157.313 118.902 156.95 121.747 157.805 123.955C158.678 126.21 160.523 127.229 162.222 128.077L167.122 130.525C168.752 131.339 170.51 132.162 172.172 131.492C174.176 130.684 175.566 127.517 175.207 124.577C174.824 121.449 172.867 119.297 171.057 117.464C168.524 114.9 165.992 112.335 163.459 109.771L162.032 111.532C160.488 113.05 159.21 114.82 158.254 116.768V116.768Z" fill="white"/>
<path d="M330.757 150.213C332.961 150.736 335.166 151.259 337.37 151.782C336.986 159.286 333.296 166.23 328.346 168.746C326.283 169.792 323.986 170.179 322.28 172.135C320.736 173.913 319.954 176.679 319.236 179.323C317.977 183.939 316.718 188.554 315.459 193.169C314.108 198.142 312.373 203.668 308.86 205.46C305.845 207 302.395 205.115 300.077 201.955C297.759 198.795 296.343 194.545 294.971 190.403C295.056 194.918 292.973 199.346 290.021 200.916C287.063 202.485 283.464 201.066 281.487 197.562C280.065 195.047 279.475 191.728 278.081 189.177C276.687 186.626 273.764 185.164 272.242 187.558C271.239 189.149 271.367 191.585 270.869 193.606C270.094 196.745 267.748 198.716 265.422 198.888C263.104 199.06 260.842 197.712 258.901 195.885C254.897 192.101 251.945 186.096 250.8 179.424C250.296 176.45 250.153 173.21 251.028 170.422C251.903 167.635 254.015 165.485 256.113 166.015C257.493 163.077 254.769 159.178 252.315 159.522C249.854 159.866 247.927 162.525 245.908 164.568C243.895 166.61 241.079 168.093 239.052 166.065C239.066 167.95 237.544 169.197 236.229 169.039C234.92 168.889 233.754 167.828 232.552 167.076C227.908 164.159 222.012 166.094 218.713 171.612C220.775 162.769 223.797 152.621 230.134 150.543C232.723 149.69 235.546 150.392 237.992 148.916C242.323 146.3 243.198 136.418 239.457 132.34C239.934 136.195 239.841 140.696 237.822 143.333C235.802 145.97 231.563 144.25 231.819 140.352C231.236 143.039 228.335 143.448 226.998 141.384C225.654 139.32 225.767 135.945 226.72 133.479C227.673 131.014 229.295 129.244 230.866 127.545C234.244 123.898 237.672 120.207 241.584 117.914C245.502 115.62 250.025 114.846 253.951 117.125C256.02 118.329 257.841 120.336 259.953 121.397C262.065 122.464 264.746 122.328 266.147 119.834C267.719 117.054 266.979 112.926 267.563 109.45C268.608 103.308 274.703 100.435 278.081 104.491C275.556 103.839 272.946 106.849 272.633 110.496C272.313 114.144 274.141 117.828 276.587 118.931C280.698 120.766 284.723 116.151 287.831 111.879C291.074 107.408 294.321 102.938 297.574 98.471C298.093 97.7104 298.676 96.9959 299.316 96.3354C300.335 95.3348 301.693 94.7619 303.115 94.7326C304.537 94.7034 305.917 95.2199 306.975 96.1777C310.261 98.8794 311.804 104.419 314.5 108.232C318.411 113.771 324.264 115.119 329.711 116.194C333.772 116.989 337.835 117.789 341.901 118.594C344.611 123.675 346.975 128.935 348.977 134.339C342.093 137.285 335.742 142.796 330.757 150.213Z" fill="white"/>
<path d="M343.885 236.44C340.838 242.675 337.294 248.65 333.288 254.306C330.728 253.203 327.976 255.173 325.579 257.022C323.076 258.957 320.068 260.842 317.501 259.079C314.876 257.273 314.03 252.221 314.862 248.215C315.694 244.216 317.771 241.034 319.783 238.01C321.917 234.799 324.2 231.467 327.165 230.22C330.138 228.973 333.957 230.736 334.825 234.993L336.93 234.921C335.749 233.287 336.368 229.904 337.954 229.31C339.781 228.614 341.367 231.144 342.448 233.38C342.932 234.391 343.423 235.408 343.885 236.44Z" fill="white"/>
<path d="M263.263 206.17C258.738 206.456 255.154 200.843 252.773 195.321C250.391 189.799 248.218 183.485 244.135 180.674C241.803 179.068 239.143 178.848 236.613 178.069C234.082 177.291 231.434 175.681 230.225 172.401L227.354 171.233C223.564 173.381 219.723 175.568 216.457 179.063C212.794 182.984 210.512 188.011 209.964 193.368C209.415 199.157 211.44 205.613 215.223 207.788C218.212 209.506 221.693 208.423 224.72 209.996C228.503 211.962 230.749 217.671 231.6 223.309C232.45 228.946 232.234 234.805 232.843 240.506C233.451 246.208 235.127 252.14 238.597 255.062C242.938 258.719 249.308 255.68 251.256 249.025C252.212 245.76 252.179 242.076 252.893 238.687C254.152 232.719 257.548 228.291 260.241 223.396C262.934 218.5 265.054 211.851 263.263 206.17Z" fill="white"/>
<path d="M218.553 147.525C218.975 147.917 219.368 148.338 219.731 148.786C220.106 149.438 220.298 150.181 220.285 150.934C220.272 151.688 220.056 152.424 219.658 153.062C220.204 153.031 220.736 152.886 221.223 152.637C221.709 152.388 222.14 152.039 222.486 151.614C223.312 150.666 224.038 149.635 224.654 148.537C225.115 147.779 225.606 146.753 225.293 145.853C225.079 145.238 224.574 144.976 224.219 144.514C223.658 143.781 223.518 142.617 223.228 141.611C222.6 139.439 221.096 137.842 219.463 137.613L219.69 137.657C219.008 137.892 218.532 138.984 218.683 139.966C218.82 140.86 219.39 141.603 219.333 142.515C219.252 143.826 217.951 144.442 217.871 145.753C217.858 146.411 218.103 147.048 218.553 147.525V147.525Z" fill="white"/>
<path d="M210.8 125.237C210.807 125.235 210.814 125.235 210.821 125.233C210.96 125.105 211.089 124.967 211.207 124.819L210.8 125.237Z" fill="#E6E6E6"/>
<path d="M212.157 131.394C213.158 130.746 213.716 128.953 213.386 127.452C213.057 125.961 211.894 124.958 210.821 125.234C210.509 125.552 210.123 125.785 209.698 125.911C209.272 126.037 208.822 126.052 208.39 125.955C207.726 125.783 206.998 125.339 206.423 125.843C206.093 126.219 205.863 126.672 205.753 127.161C205.54 127.82 205.327 128.479 205.114 129.138C205.012 129.374 204.986 129.635 205.038 129.887C205.079 129.987 205.145 130.076 205.229 130.144C205.314 130.211 205.414 130.256 205.521 130.273C206.799 130.653 208.076 131.033 209.354 131.412C210.285 131.689 211.291 131.955 212.157 131.394Z" fill="white"/>
<path d="M308.621 216.388C308.03 215.413 307.44 214.439 306.849 213.464C306.269 212.336 305.476 211.332 304.514 210.51C304.302 210.331 304.058 210.197 303.794 210.115C303.531 210.034 303.253 210.006 302.979 210.033C302.705 210.061 302.438 210.144 302.196 210.277C301.954 210.409 301.74 210.59 301.568 210.807L301.64 211.364C302.987 213.066 304.411 214.957 304.753 217.483C304.887 218.479 304.84 219.509 304.958 220.51C305.077 221.51 305.412 222.547 306.053 222.978C306.983 223.605 308.075 222.681 308.737 221.555C309.329 220.63 309.594 219.531 309.491 218.435C309.343 217.7 309.047 217.003 308.621 216.388V216.388Z" fill="white"/>
<path d="M334.908 179.17C335.079 178.041 335.25 176.913 335.421 175.784C335.698 174.544 335.733 173.261 335.522 172.008C335.475 171.734 335.373 171.473 335.224 171.239C335.075 171.006 334.88 170.805 334.653 170.648C334.425 170.491 334.168 170.381 333.898 170.326C333.628 170.27 333.349 170.27 333.079 170.324L332.778 170.797C332.721 172.973 332.602 175.344 331.249 177.498C330.716 178.347 330.021 179.105 329.472 179.947C328.923 180.789 328.517 181.8 328.732 182.546C329.043 183.629 330.469 183.631 331.695 183.199C332.739 182.875 333.644 182.206 334.265 181.301C334.622 180.643 334.841 179.917 334.908 179.17V179.17Z" fill="#E6E6E6"/>
<path d="M317.887 217.656C318.176 216.819 317.759 215.86 317.671 214.935C317.628 213.741 317.942 212.561 318.573 211.549C319.198 210.594 319.672 209.546 319.978 208.444C320.107 207.942 320.083 207.412 319.91 206.924C319.715 206.481 319.241 206.279 318.97 206.63L319.551 207.007C318.766 206.866 317.96 206.905 317.192 207.122C316.754 207.291 316.363 207.564 316.052 207.917C315.74 208.271 315.518 208.695 315.404 209.153C315.308 209.868 315.151 210.573 314.935 211.26C314.589 211.978 313.917 212.217 313.495 212.848C313.208 213.407 313.063 214.029 313.073 214.658C313.083 215.288 313.249 215.905 313.555 216.454C314.085 217.351 314.927 218.019 315.917 218.326C316.627 218.582 317.562 218.596 317.887 217.656Z" fill="white"/>
<path d="M334.387 222.673C334.644 223.346 334.988 223.981 335.41 224.564C336.2 225.365 337.273 224.873 338.232 224.678C339.101 224.539 339.992 224.641 340.809 224.971C341.626 225.301 342.339 225.848 342.873 226.554C342.501 224.686 341.69 222.935 340.508 221.449C339.326 219.962 337.807 218.784 336.078 218.011C333.819 217.083 331.44 216.994 329.091 216.91L328.685 217.015C329.719 220.048 332.966 219.98 334.387 222.673Z" fill="white"/>
<path d="M264.501 228.877L264.507 228.89C264.546 228.814 264.586 228.738 264.625 228.661L264.501 228.877Z" fill="#E6E6E6"/>
<path d="M261.998 233.76C261.452 234.758 260.982 235.798 260.593 236.868C260.078 238.603 259.737 240.385 259.575 242.188C259.448 243.213 259.409 244.522 260.046 245.022C260.229 245.144 260.45 245.195 260.668 245.165C260.886 245.136 261.085 245.027 261.229 244.86C261.583 244.482 261.873 244.048 262.086 243.576C263.339 241.401 264.312 239.075 264.981 236.653C265.591 234.102 265.585 231.099 264.507 228.89C263.67 230.513 262.834 232.136 261.998 233.76Z" fill="white"/>
<path d="M237.849 103.676C238.247 104.068 238.749 104.334 239.295 104.441C239.841 104.549 240.406 104.493 240.92 104.28C241.986 103.811 242.963 103.16 243.81 102.357C244.511 101.834 245.106 101.18 245.562 100.431C245.813 99.9833 245.974 99.49 246.036 98.9794C246.097 98.4688 246.058 97.951 245.92 97.4557C245.525 96.2893 244.52 95.8983 243.634 95.6336C242.216 95.2097 240.798 94.7859 239.38 94.3621L240.406 93.4303C239.35 92.8594 238.182 93.9189 237.522 95.2306C237.099 96.0871 236.804 97.002 236.647 97.9456C236.294 100.004 236.639 102.456 237.849 103.676Z" fill="#E6E6E6"/>
<path d="M262.889 95.2053C263.288 95.6494 263.841 95.9235 264.434 95.9722C265.027 96.0208 265.616 95.8402 266.082 95.4671C266.483 95.1637 266.816 94.7786 267.059 94.3369C267.303 93.8952 267.451 93.4068 267.494 92.9035C267.595 91.7793 267.043 90.5298 266.255 90.4327L266.436 89.3801C264.918 89.104 263.05 89.0486 262.237 90.9058C261.963 91.6173 261.879 92.3888 261.993 93.1433C262.107 93.8977 262.416 94.6088 262.889 95.2053Z" fill="#E6E6E6"/>
<path d="M259.544 39.2316C250.647 38.2203 241.715 40.812 234.714 46.4366C227.713 52.0613 223.216 60.2581 222.213 69.2239C220.123 87.8942 229.884 128.437 247.68 145.22C256.059 113.065 285.421 93.9927 289.307 76.8505C293.458 58.5334 278.071 41.3376 259.544 39.2316Z" fill="white"/>
<path d="M253.39 80.7374C259.471 80.7374 264.401 75.77 264.401 69.6424C264.401 63.5148 259.471 58.5474 253.39 58.5474C247.31 58.5474 242.38 63.5148 242.38 69.6424C242.38 75.77 247.31 80.7374 253.39 80.7374Z" fill="white"/>
<path d="M241.814 161.218C245.796 161.218 249.025 157.965 249.025 153.951C249.025 149.938 245.796 146.684 241.814 146.684C237.831 146.684 234.602 149.938 234.602 153.951C234.602 157.965 237.831 161.218 241.814 161.218Z" fill="white"/>
<path opacity="0.2" d="M262.5 61.6936C263.739 62.444 264.82 63.4331 265.68 64.6043C266.54 65.7756 267.163 67.106 267.512 68.5198C267.862 69.9335 267.932 71.4028 267.718 72.8438C267.505 74.2847 267.011 75.6692 266.267 76.9181C265.522 78.1669 264.54 79.2558 263.378 80.1224C262.216 80.989 260.896 81.6165 259.493 81.9689C256.659 82.6807 253.662 82.2291 251.159 80.7136C253.711 81.2856 256.381 80.9238 258.693 79.6929C261.004 78.462 262.805 76.4423 263.774 73.9954C264.743 71.5484 264.816 68.8339 263.98 66.3378C263.144 63.8416 261.454 61.7267 259.212 60.3716C260.371 60.6306 261.482 61.077 262.5 61.6936V61.6936Z" fill="#231F20"/>
<path opacity="0.2" d="M289.35 76.8861C285.465 94.0283 256.102 113.101 247.723 145.256C246.049 143.663 244.495 141.946 243.072 140.122C252.488 109.897 280.023 91.5312 283.777 74.9688C287.137 60.145 277.699 46.0571 264.157 40.106C280.55 44.2585 293.154 60.1003 289.35 76.8861Z" fill="#231F20"/>
<path d="M156.368 82.5229C149.686 81.7634 142.979 83.7097 137.722 87.9336C132.464 92.1575 129.087 98.3131 128.333 105.046C126.764 119.067 134.094 149.513 147.458 162.117C153.751 137.969 175.801 123.647 178.719 110.773C181.836 97.0179 170.281 84.1045 156.368 82.5229Z" fill="white"/>
<path d="M151.747 113.692C156.313 113.692 160.015 109.962 160.015 105.36C160.015 100.759 156.313 97.0283 151.747 97.0283C147.18 97.0283 143.478 100.759 143.478 105.36C143.478 109.962 147.18 113.692 151.747 113.692Z" fill="white"/>
<path d="M143.053 174.13C146.044 174.13 148.468 171.687 148.468 168.673C148.468 165.659 146.044 163.216 143.053 163.216C140.062 163.216 137.637 165.659 137.637 168.673C137.637 171.687 140.062 174.13 143.053 174.13Z" fill="white"/>
<path opacity="0.2" d="M158.588 99.3907C159.518 99.9543 160.33 100.697 160.976 101.577C161.622 102.456 162.089 103.455 162.352 104.517C162.614 105.579 162.667 106.682 162.506 107.764C162.346 108.846 161.975 109.886 161.416 110.824C160.857 111.762 160.12 112.579 159.247 113.23C158.374 113.881 157.383 114.352 156.329 114.617C155.276 114.881 154.181 114.934 153.107 114.773C152.033 114.611 151.001 114.238 150.071 113.674C151.987 114.104 153.993 113.832 155.728 112.908C157.464 111.983 158.817 110.466 159.544 108.629C160.272 106.791 160.327 104.753 159.699 102.878C159.071 101.004 157.802 99.4156 156.118 98.3979C156.989 98.5925 157.823 98.9277 158.588 99.3907Z" fill="#231F20"/>
<path opacity="0.2" d="M178.751 110.8C175.833 123.674 153.783 137.996 147.49 162.144C146.234 160.947 145.066 159.658 143.998 158.288C151.069 135.59 171.747 121.798 174.566 109.36C177.089 98.2284 170.002 87.6488 159.832 83.1797C172.142 86.2981 181.608 98.1948 178.751 110.8Z" fill="#231F20"/>
<path d="M415.228 384.353H406.15L401.831 349.067L415.23 349.068L415.228 384.353Z" fill="#A0616A"/>
<path d="M420.112 401.723H413.67L412.52 395.595L409.576 401.723H392.49C391.672 401.723 390.874 401.46 390.214 400.971C389.555 400.482 389.067 399.793 388.824 399.005C388.58 398.217 388.593 397.371 388.86 396.591C389.127 395.811 389.634 395.137 390.308 394.668L403.952 385.173V378.977L418.302 379.84L420.112 401.723Z" fill="#2F2E41"/>
<path d="M380.066 384.353H370.988L366.669 349.067L380.068 349.068L380.066 384.353Z" fill="#A0616A"/>
<path d="M384.95 401.723H378.508L377.358 395.595L374.413 401.723H357.328C356.509 401.723 355.712 401.46 355.052 400.971C354.392 400.482 353.905 399.793 353.661 399.005C353.418 398.217 353.43 397.371 353.697 396.591C353.964 395.811 354.472 395.137 355.146 394.668L368.79 385.173V378.977L383.14 379.84L384.95 401.723Z" fill="#2F2E41"/>
<path d="M345.577 291.19C347.314 293.816 366.214 366.005 366.214 366.005L382.972 367.93L380.983 349.767L377.942 317.625L373.234 296.171C373.234 296.171 389.86 258.041 390.911 255.004L391.658 252.824L396.852 300.328C397.47 302.024 397.739 303.829 397.643 305.633C397.487 308.6 400.44 353.242 400.44 353.242L401.86 369.252L416.218 371.262L422.043 343.561C426.907 334.563 424.119 302.587 422.13 299.611C420.141 296.634 420.931 275.907 420.931 275.907C423.471 275.006 438.618 222.957 431.042 223.264C431.528 220.489 431.91 218.012 431.91 218.012L418.759 207.324L385.847 198.702L377.543 194.685C377.543 194.685 362.713 222.319 362.861 223.693C363.065 225.434 362.67 227.192 361.74 228.674L346.767 279.172C346.767 279.172 343.822 288.538 345.577 291.19Z" fill="#2F2E41"/>
<path d="M428.264 110.489L423.028 99.2866L405.207 99.9768L399.395 111.631C399.395 111.631 382.783 131.626 382.245 138.127C381.569 146.304 387.189 186.379 381.569 183.782C381.569 183.782 368.319 199.454 376.159 199.454C383.999 199.454 419.464 221.889 421.792 224.412C424.119 226.935 434.507 228.571 433.636 223.304C432.765 218.036 428.264 189.551 428.264 189.551L440.448 144.759C443.955 135.089 445.046 124.242 437.119 117.746L428.264 110.489Z" fill="#CCCCCC"/>
<path d="M362.254 77.5173C359.871 76.5638 357.324 76.0928 354.76 76.1311C352.195 76.1694 349.664 76.7163 347.309 77.7406C344.955 78.7648 342.823 80.2464 341.037 82.1007C339.251 83.955 337.844 86.1457 336.898 88.5478C332.919 98.6497 332.259 122.774 339.664 134.865C349.186 118.198 368.449 112.043 373.2 103.069C378.277 93.4797 372.279 81.5273 362.254 77.5173Z" fill="white"/>
<path d="M354.238 99.9691C357.755 99.9691 360.607 97.0956 360.607 93.551C360.607 90.0063 357.755 87.1328 354.238 87.1328C350.72 87.1328 347.869 90.0063 347.869 93.551C347.869 97.0956 350.72 99.9691 354.238 99.9691Z" fill="white"/>
<path d="M335.075 143.044C337.379 143.044 339.246 141.162 339.246 138.84C339.246 136.519 337.379 134.637 335.075 134.637C332.771 134.637 330.903 136.519 330.903 138.84C330.903 141.162 332.771 143.044 335.075 143.044Z" fill="white"/>
<path opacity="0.2" d="M360.52 90.5076C361.687 91.7369 362.322 93.3827 362.285 95.0833C362.249 96.784 361.544 98.4004 360.325 99.5774C359.106 100.754 357.474 101.396 355.786 101.36C354.098 101.325 352.494 100.616 351.324 99.3894C352.663 100.099 354.208 100.306 355.684 99.9722C357.159 99.6387 358.469 98.7869 359.378 97.5692C360.288 96.3516 360.737 94.8475 360.647 93.3263C360.556 91.8051 359.931 90.366 358.884 89.2666C359.492 89.5886 360.045 90.0077 360.52 90.5076Z" fill="#231F20"/>
<path opacity="0.2" d="M373.219 103.096C368.468 112.07 349.204 118.224 339.683 134.891C338.989 133.746 338.38 132.55 337.861 131.314C347.67 115.883 365.807 109.844 370.397 101.173C374.506 93.4126 371.36 84.105 364.698 78.7114C373.222 83.5371 377.871 94.3082 373.219 103.096Z" fill="#231F20"/>
<path d="M333.195 137.393C334.164 137.192 335.166 137.207 336.13 137.438C337.093 137.669 337.994 138.11 338.77 138.73C339.546 139.349 340.177 140.133 340.62 141.026C341.063 141.918 341.306 142.898 341.332 143.895L355.782 149.484L354.553 159.161L334.258 150.979C332.592 150.913 331.008 150.233 329.807 149.069C328.605 147.905 327.869 146.337 327.738 144.662C327.607 142.987 328.09 141.322 329.096 139.983C330.101 138.643 331.56 137.721 333.195 137.393L333.195 137.393Z" fill="#A0616A"/>
<path d="M434.155 117.452C432.634 116.516 430.944 115.892 429.183 115.615C427.422 115.339 425.624 115.415 423.892 115.841C422.16 116.266 420.529 117.032 419.091 118.094C417.654 119.156 416.439 120.494 415.516 122.03L394.776 156.543L347.884 145.342L343.612 157.161L403.662 185.825L434.075 137.011C438.629 130.562 440.858 121.576 434.155 117.452Z" fill="#CCCCCC"/>
<path d="M434.929 75.1547C434.931 78.4811 434.122 81.757 432.573 84.6947C431.025 87.6325 428.784 90.1423 426.049 92.0038C423.313 93.8653 420.166 95.0217 416.883 95.3713C413.6 95.721 410.283 95.2532 407.221 94.0092C404.16 92.7651 401.448 90.7828 399.325 88.2362C397.201 85.6895 395.73 82.6565 395.041 79.4034C394.352 76.1502 394.466 72.7763 395.373 69.578C396.281 66.3796 397.953 63.4545 400.244 61.0595L400.341 60.9621C400.502 60.7913 400.663 60.6206 400.833 60.458C400.834 60.458 400.835 60.4578 400.836 60.4574C400.837 60.457 400.838 60.4564 400.838 60.4557C400.839 60.4549 400.84 60.454 400.84 60.453C400.84 60.452 400.841 60.451 400.841 60.4499C401.05 60.2548 401.26 60.0597 401.478 59.8728C404.392 57.2983 407.98 55.6247 411.814 55.0524C415.647 54.4801 419.563 55.0332 423.093 56.6457C426.623 58.2581 429.616 60.8615 431.715 64.1441C433.815 67.4267 434.931 71.2495 434.929 75.1547V75.1547Z" fill="#2F2E41"/>
<path d="M409.795 96.8976C419.134 96.8976 426.705 89.2682 426.705 79.857C426.705 70.4457 419.134 62.8164 409.795 62.8164C400.456 62.8164 392.885 70.4457 392.885 79.857C392.885 89.2682 400.456 96.8976 409.795 96.8976Z" fill="#9E616A"/>
<path d="M427.752 84.7166L424.95 84.2179C423.385 83.9312 421.943 83.1696 420.819 82.035C419.695 80.9004 418.941 79.4469 418.659 77.8689L415.925 82.4861L415.805 82.526C409.291 84.7053 402.514 84.0535 395.091 80.536C392.968 79.5215 390.909 78.3774 388.925 77.1103L388.778 77.0181L388.766 76.8448C388.388 71.3013 389.622 66.6702 392.243 63.8045C393.249 62.7263 394.47 61.8746 395.826 61.3051C397.182 60.7356 398.642 60.4612 400.11 60.4999C400.214 60.4724 400.311 60.419 400.389 60.3445C400.427 60.3166 400.465 60.289 400.502 60.2627V60.2341L400.696 60.1419C401.114 59.9443 401.539 59.755 401.964 59.5819C405.31 58.2766 408.954 57.9492 412.476 58.6372C415.999 59.3253 419.257 61.0009 421.877 63.4714C427.086 68.4825 429.475 76.8921 427.822 84.3982L427.752 84.7166Z" fill="#2F2E41"/>
<path d="M463.419 99.2352C457.665 96.2421 465.066 85.3791 463.579 79.0278C462.091 72.6765 451.382 70.6337 450.7 64.1443C450.018 57.6548 448.413 50.9617 444.163 46.0374C441.448 42.8909 437.447 40.568 433.327 40.9621C431.933 41.0954 430.584 41.5299 429.372 42.236C428.16 42.942 427.113 43.9031 426.303 45.0536C425.492 46.2042 424.938 47.5172 424.676 48.9033C424.415 50.2893 424.453 51.7159 424.788 53.0858C423.615 51.4111 420.58 51.774 419.828 53.679C419.16 55.3725 420.636 57.4238 422.372 57.5736C424.645 60.4015 427.247 63.4026 430.807 63.9731C431.374 64.1043 431.963 64.104 432.531 63.9721C433.098 63.8402 433.627 63.5802 434.08 63.2117C434.918 62.4012 434.983 60.7809 433.989 60.1752C438.463 61.966 441.086 66.8405 441.75 71.6451C442.414 76.4498 441.495 81.3111 440.89 86.1236C440.285 90.9361 440.024 95.9986 441.897 100.468C444.109 105.748 449.203 109.532 454.762 110.746C460.32 111.959 466.24 110.773 471.272 108.101C476.304 105.428 480.5 101.349 483.927 96.7746C478.023 100.999 469.854 102.582 463.419 99.2352Z" fill="#2F2E41"/>
<path d="M427.033 84.2429C427.033 84.2429 422.023 65.4007 400.55 61.0518C400.526 61.0437 400.445 61.0112 400.341 60.9625C400.276 60.9218 400.195 60.8811 400.115 60.8405C400.357 60.7023 400.591 60.5804 400.833 60.4584C400.834 60.4584 400.835 60.4582 400.836 60.4578C400.837 60.4574 400.838 60.4568 400.838 60.4561C400.839 60.4553 400.84 60.4544 400.84 60.4534C400.84 60.4524 400.841 60.4513 400.841 60.4503C401.05 60.2552 401.26 60.0601 401.478 59.8732L402.091 59.8976C402.091 59.8976 423.637 56.4591 427.033 84.2429Z" fill="#FD6584"/>
<path opacity="0.2" d="M415.817 144.703L403.69 158.862L383.65 152.899L405.496 163.044L415.817 144.703Z" fill="black"/>
<path d="M488.611 402.791L302.149 403C301.936 402.999 301.732 402.914 301.582 402.762C301.431 402.61 301.347 402.403 301.347 402.189C301.347 401.974 301.431 401.768 301.582 401.616C301.732 401.464 301.936 401.378 302.149 401.377L488.611 401.168C488.824 401.168 489.029 401.253 489.18 401.406C489.331 401.558 489.416 401.764 489.416 401.979C489.416 402.194 489.331 402.401 489.18 402.553C489.029 402.705 488.824 402.791 488.611 402.791V402.791Z" fill="#CACACA"/>
<path d="M496.795 276.702C488.064 276.702 478.495 276.37 468.086 275.705C414.252 272.26 344.52 260.283 271.735 241.98C198.95 223.678 131.809 201.236 82.6797 178.79C58.7473 167.855 40.3793 157.505 28.0866 148.026C15.0718 137.991 9.37891 129.243 11.1655 122.028C14.6466 107.971 45.4697 104.896 70.7142 104.792L70.7228 106.836C36.0554 106.979 15.6034 112.551 13.134 122.523C9.98843 135.225 35.6424 155.054 83.5174 176.928C132.539 199.325 199.557 221.724 272.226 239.997C344.895 258.27 414.499 270.227 468.215 273.665C520.674 277.022 552.566 271.663 555.712 258.961C558.323 248.415 541.107 232.88 507.235 215.216L508.168 213.4C532.779 226.235 561.348 244.644 557.68 259.456C555.893 266.671 546.79 271.698 530.622 274.395C521.406 275.932 510.086 276.702 496.795 276.702Z" fill="white"/>
</g>
<defs>
<clipPath id="clip0_76_1625">
<rect width="558" height="403" fill="white"/>
</clipPath>
</defs>
</svg>
