<svg width="253" height="174" viewBox="0 0 253 174" fill="none" xmlns="http://www.w3.org/2000/svg">
<g clip-path="url(#clip0_76_1571)">
<path d="M75.9703 83.55C76.7842 83.9579 78.0978 82.3445 78.3955 83.1337C78.6932 83.9229 77.9722 87.1072 77.6002 87.8709C77.4153 88.2505 77.154 88.5977 76.9725 88.9787C76.7911 89.3596 76.6938 89.7976 76.8542 90.186C77.1333 90.8618 78.0543 91.1368 78.511 91.7308C79.0428 92.4227 78.828 93.3546 78.5794 94.1637C78.3651 94.861 78.1367 95.5646 77.7241 96.1871C77.3116 96.8095 76.6896 97.3515 75.9125 97.5575C74.9229 97.8197 73.8654 97.508 72.9114 97.1562C71.9943 96.818 71.087 96.4346 70.307 95.8874C69.5269 95.3401 68.8761 94.6138 68.6034 93.7628C68.2614 92.6953 68.5471 91.527 69.1393 90.5505C69.7315 89.5739 70.6076 88.7604 71.5064 87.9923C73.0203 86.6986 74.6314 85.4954 76.3253 84.3935" fill="#2F2E41"/>
<path d="M218.917 36.8806C223.982 36.8806 228.089 33.2184 228.089 28.7008C228.089 24.1832 223.982 20.521 218.917 20.521C213.851 20.521 209.744 24.1832 209.744 28.7008C209.744 33.2184 213.851 36.8806 218.917 36.8806Z" fill="#FF6884"/>
<path d="M174.133 145.297C174.081 145.688 174.066 146.052 174.096 146.41H196.156C196.356 146.052 196.527 145.681 196.676 145.297C199.373 138.386 194.937 126.883 200.562 109.827C204.737 97.1704 212.532 87.2707 216.165 82.6589C220.63 76.9868 225.69 71.752 231.553 63.3897C232.823 61.5807 234.131 59.6193 235.483 57.479C235.936 56.7634 241.16 48.4607 240.684 48.2023C240.461 48.083 239.079 49.7594 238.611 50.3227C234.48 55.3056 232.08 57.4857 228.64 61.0705C226.552 63.2439 224.085 65.9275 220.623 70.069C211.744 80.6776 207.308 85.9786 205.763 89.9478C205.354 91.008 203.177 96.7463 199.076 103.863C196.98 107.494 195.933 109.31 195.361 109.164C193.741 108.746 195.925 93.7115 202.791 78.6831C203.965 76.1254 204.841 74.4887 206.506 71.3942C209.21 66.345 224.271 38.2827 235.342 21.4851C236.731 19.3714 238.061 17.4431 239.287 15.7534C239.525 15.4354 239.755 15.1239 239.978 14.8258C241.524 12.7716 242.891 11.1481 244.028 10.1012C244.629 9.54459 246.16 7.96754 249.229 4.8002C250.447 3.54119 251.339 2.60691 251.941 1.92438C252.03 1.82501 252.112 1.7256 252.178 1.63946C252.907 0.791315 253.115 0.380448 252.944 0.161811C252.699 -0.149645 251.755 0.0292782 250.722 0.353957C250.611 0.387082 250.492 0.426837 250.38 0.466592C249.258 0.837662 248.122 1.32141 247.743 1.48706C244.265 2.97797 240.87 5.64834 237.727 8.82235C236.56 9.99517 235.438 11.2343 234.354 12.5066C230.862 16.6148 227.815 21.0875 225.512 24.7652C222.688 29.2975 220.994 32.6305 220.994 32.6305C213.111 48.1559 204.366 65.9143 203.905 65.7619C203.4 65.5962 213.096 43.491 215.92 31.4842C216.863 27.462 217.034 24.573 215.793 24.0164C215.749 23.9965 215.704 23.9766 215.652 23.9634C215.459 23.9037 215.281 23.9103 215.184 23.917C215.184 23.917 214.032 23.7844 212.821 24.0164C211.313 24.3079 209.597 28.0518 207.925 33.3064C203.578 46.8505 199.447 70.4003 199.447 70.4003C195.316 93.9566 189.045 113.02 187.559 112.808C186.734 112.689 187.916 106.772 186.816 96.9053C186.043 89.9875 185.167 90.1996 182.358 77.6892C177.9 57.8435 175.671 47.9239 175.671 47.871C175.693 47.4535 175.753 46.6119 175.611 45.7373C175.463 44.7897 175.084 43.7958 174.185 43.2326C172.818 42.3712 170.618 42.7422 169.727 43.2326C169.014 43.6301 168.649 44.359 168.568 45.406C168.077 51.9925 178.688 71.0894 182.358 96.9053C184.186 109.767 185.189 116.784 182.358 126.061C179.557 135.258 174.675 141.116 174.133 145.297V145.297Z" fill="#F2F2F2"/>
<path d="M168.273 105.747C168.03 105.382 166.982 105.773 166.789 105.442C166.596 105.112 167.571 104.61 168.128 103.462C168.228 103.255 168.861 101.951 168.393 101.548C167.505 100.785 163.442 103.933 162.02 102.903C161.708 102.677 161.49 102.226 160.545 101.493C160.169 101.202 159.942 101.07 159.722 101.119C159.41 101.188 159.386 101.561 159.051 102.293C158.549 103.391 158.253 103.325 157.96 104.201C157.743 104.851 157.793 105.229 157.538 105.303C157.176 105.407 156.844 104.717 156.386 104.779C155.918 104.842 155.636 105.645 155.547 106.247C155.379 107.375 155.844 108.12 156.101 108.903C156.381 109.754 156.547 111.048 155.901 112.88L149.503 128.955C150.916 125.657 155.005 116.614 156.724 113.254C157.22 112.284 157.768 111.3 158.892 110.912C159.975 110.538 161.462 110.761 163.358 110.354C163.58 110.306 164.194 110.167 164.271 109.844C164.335 109.578 163.974 109.429 164.03 109.18C164.104 108.845 164.815 108.841 165.688 108.454C166.304 108.182 166.688 107.858 167.018 107.58C167.117 107.496 168.596 106.232 168.273 105.747H168.273Z" fill="#F2F2F2"/>
<path d="M143.102 114.21C142.832 114.211 142.744 114.782 142.506 114.771C142.269 114.76 142.274 114.189 141.803 113.614C141.718 113.51 141.183 112.857 140.826 112.946C140.15 113.114 140.71 115.801 139.733 116.126C139.519 116.198 139.207 116.163 138.531 116.365C138.263 116.445 138.125 116.507 138.088 116.617C138.036 116.774 138.234 116.892 138.541 117.25C139 117.786 138.878 117.897 139.276 118.277C139.571 118.56 139.794 118.647 139.76 118.781C139.714 118.969 139.238 118.915 139.14 119.134C139.04 119.356 139.4 119.712 139.705 119.924C140.278 120.323 140.822 120.335 141.327 120.448C141.876 120.571 142.636 120.872 143.458 121.683L150.459 129.122C149.051 127.552 145.255 123.153 143.901 121.431C143.511 120.934 143.127 120.41 143.238 119.806C143.345 119.224 143.897 118.637 144.22 117.69C144.257 117.579 144.358 117.27 144.203 117.143C144.075 117.038 143.888 117.154 143.767 117.057C143.604 116.928 143.807 116.616 143.847 116.122C143.874 115.774 143.807 115.513 143.749 115.288C143.731 115.22 143.462 114.208 143.102 114.21V114.21H143.102Z" fill="#F2F2F2"/>
<path d="M148.501 115.291L148.338 113.993L148.413 113.894C148.757 113.439 148.933 112.995 148.935 112.573C148.936 112.506 148.932 112.439 148.929 112.37C148.914 112.1 148.897 111.763 149.094 111.371C149.204 111.152 149.514 110.646 149.98 110.708C150.105 110.724 150.2 110.775 150.272 110.835C150.283 110.82 150.294 110.805 150.305 110.789C150.45 110.592 150.565 110.507 150.676 110.426C150.761 110.363 150.849 110.298 150.987 110.145C151.047 110.078 151.094 110.019 151.134 109.97C151.255 109.82 151.412 109.641 151.69 109.645C151.986 109.657 152.141 109.876 152.244 110.021C152.428 110.279 152.511 110.465 152.567 110.589C152.587 110.634 152.61 110.684 152.621 110.7C152.717 110.825 153.494 110.708 153.786 110.666C154.444 110.568 155.013 110.483 155.247 110.853C155.415 111.117 155.29 111.467 154.865 111.92C154.733 112.061 154.592 112.169 154.467 112.253C154.57 112.308 154.663 112.392 154.701 112.525C154.789 112.84 154.486 113.155 153.8 113.464C153.629 113.541 153.4 113.643 153.078 113.693C152.927 113.716 152.791 113.722 152.674 113.725C152.671 113.785 152.656 113.85 152.614 113.917C152.494 114.115 152.243 114.209 151.865 114.186C151.449 114.167 151.106 114.096 150.804 114.034C150.54 113.98 150.313 113.934 150.134 113.945C149.803 113.969 149.548 114.205 149.249 114.512L148.501 115.291Z" fill="#F2F2F2"/>
<path d="M149.258 107.562L147.891 108.032L147.765 107.992C147.184 107.81 146.658 107.772 146.2 107.877C146.127 107.893 146.055 107.913 145.982 107.934C145.692 108.015 145.331 108.115 144.856 108.045C144.59 108.005 143.963 107.866 143.912 107.448C143.897 107.336 143.929 107.241 143.976 107.164C143.957 107.159 143.938 107.153 143.917 107.147C143.667 107.072 143.546 106.994 143.429 106.92C143.34 106.862 143.247 106.803 143.046 106.723C142.958 106.688 142.883 106.662 142.819 106.64C142.626 106.574 142.392 106.484 142.325 106.243C142.263 105.984 142.461 105.795 142.592 105.669C142.826 105.445 143.006 105.326 143.126 105.247C143.17 105.219 143.219 105.186 143.234 105.172C143.345 105.058 143.021 104.417 142.901 104.176C142.628 103.633 142.392 103.164 142.733 102.868C142.978 102.656 143.389 102.675 143.988 102.927C144.175 103.005 144.327 103.1 144.449 103.186C144.483 103.083 144.551 102.981 144.686 102.915C145.005 102.759 145.423 102.941 145.932 103.454C146.059 103.582 146.229 103.754 146.364 104.019C146.427 104.143 146.468 104.26 146.501 104.359C146.567 104.346 146.642 104.343 146.725 104.362C146.97 104.416 147.135 104.608 147.207 104.94C147.291 105.304 147.301 105.618 147.31 105.894C147.319 106.135 147.327 106.343 147.384 106.494C147.494 106.774 147.815 106.934 148.223 107.115L149.258 107.562L149.258 107.562Z" fill="#F2F2F2"/>
<path d="M148.501 103.738L148.338 102.44L148.413 102.341C148.757 101.886 148.933 101.442 148.935 101.02C148.936 100.953 148.932 100.886 148.929 100.818C148.914 100.547 148.897 100.21 149.094 99.818C149.204 99.5993 149.514 99.0928 149.98 99.1555C150.105 99.1712 150.2 99.2225 150.272 99.2827C150.283 99.2677 150.294 99.2526 150.305 99.2363C150.45 99.0389 150.565 98.9543 150.676 98.8728C150.761 98.8101 150.849 98.7456 150.987 98.5926C151.047 98.5256 151.094 98.4667 151.134 98.4171C151.255 98.2673 151.412 98.0887 151.69 98.0918C151.986 98.1044 152.141 98.3231 152.244 98.4679C152.428 98.7261 152.511 98.9123 152.567 99.0358C152.587 99.0809 152.61 99.1317 152.621 99.1473C152.717 99.2727 153.494 99.1555 153.786 99.1129C154.444 99.0151 155.013 98.9305 155.247 99.3003C155.415 99.5648 155.29 99.9145 154.865 100.368C154.733 100.509 154.592 100.616 154.467 100.7C154.57 100.755 154.663 100.84 154.701 100.973C154.789 101.287 154.486 101.602 153.8 101.911C153.629 101.988 153.4 102.091 153.078 102.14C152.927 102.163 152.791 102.169 152.674 102.172C152.671 102.232 152.656 102.298 152.614 102.365C152.494 102.562 152.243 102.656 151.865 102.633C151.449 102.614 151.106 102.543 150.804 102.481C150.54 102.427 150.313 102.382 150.134 102.392C149.803 102.416 149.548 102.652 149.249 102.959L148.501 103.738Z" fill="#F2F2F2"/>
<path d="M149.991 128.934L149.686 128.764L149.612 128.45L149.686 128.764L149.33 128.8C149.324 128.771 149.305 128.703 149.276 128.597C149.117 128.017 148.631 126.25 148.226 123.469C147.944 121.527 147.784 119.531 147.751 117.534C147.718 115.535 147.824 114.021 147.909 112.805C147.973 111.887 148.051 111.013 148.128 110.162C148.332 107.888 148.524 105.74 148.381 103.362C148.349 102.831 148.283 101.726 147.559 100.551C147.139 99.8686 146.561 99.2632 145.84 98.7517L146.288 98.249C147.084 98.8144 147.724 99.485 148.19 100.242C148.993 101.546 149.065 102.75 149.1 103.328C149.246 105.748 149.051 107.917 148.845 110.213C148.769 111.061 148.691 111.931 148.627 112.845C148.543 114.05 148.438 115.551 148.471 117.524C148.503 119.497 148.661 121.469 148.94 123.386C149.34 126.133 149.818 127.873 149.975 128.444C150.059 128.749 150.076 128.813 149.991 128.934V128.934Z" fill="#F2F2F2"/>
<path d="M144.52 99.7714C144.49 99.7714 144.46 99.7708 144.43 99.7689C143.817 99.7395 143.25 99.4123 142.743 98.7968C142.506 98.5072 142.384 98.1769 142.141 97.5181C142.104 97.4166 141.921 96.9014 141.81 96.1925C141.737 95.7293 141.747 95.5356 141.849 95.3645C141.964 95.174 142.149 95.0411 142.357 94.9515C142.347 94.89 142.355 94.8267 142.385 94.7622C142.507 94.4946 142.833 94.5297 143.01 94.5466C143.099 94.5566 143.21 94.5698 143.331 94.5641C143.52 94.556 143.621 94.5058 143.775 94.4306C143.922 94.3585 144.106 94.2689 144.377 94.2194C144.913 94.1197 145.361 94.2551 145.509 94.2996C146.288 94.5309 146.671 95.0706 147.116 95.6955C147.204 95.8208 147.508 96.2771 147.709 96.9026C147.854 97.3539 147.833 97.5545 147.79 97.7037C147.701 98.0102 147.492 98.1857 146.961 98.573C146.407 98.9785 146.128 99.1816 145.889 99.3051C145.333 99.5915 144.984 99.7714 144.52 99.7714V99.7714H144.52Z" fill="#F2F2F2"/>
<path d="M240.347 146.723C240.347 146.842 240.239 146.938 240.106 146.938H18.051V146.508H240.106C240.239 146.508 240.347 146.604 240.347 146.723Z" fill="#E6E6E6"/>
<path d="M182.338 146.682H119.275V136.258C119.275 128.045 126.74 121.363 135.915 121.363H182.338V146.682Z" fill="#E6E6E6"/>
<path d="M88.7145 166.916H0V152.252C0 140.698 10.501 131.298 23.4087 131.298H88.7145V166.916Z" fill="#E6E6E6"/>
<path d="M137.659 106.628H131.608V126.551H137.659V106.628Z" fill="#E6E6E6"/>
<path d="M182.338 106.628H176.288V126.551H182.338V106.628Z" fill="#E6E6E6"/>
<path d="M178.15 108.289H136.728V108.704H178.15V108.289Z" fill="#E6E6E6"/>
<path d="M178.15 114.93H136.728V115.345H178.15V114.93Z" fill="#E6E6E6"/>
<path d="M178.15 118.25H136.728V118.665H178.15V118.25Z" fill="#E6E6E6"/>
<path d="M146.291 108.624C144.744 108.751 143.417 108.143 143.326 107.265C143.236 106.387 144.416 105.572 145.963 105.445C146.581 105.387 147.205 105.461 147.783 105.662L154.345 105.196L154.524 107.947L148.037 108.114C147.509 108.406 146.91 108.581 146.291 108.624Z" fill="#A0616A"/>
<path d="M170.673 97.4443C170.673 97.4443 173.347 102.3 170.714 103.504C168.08 104.707 156.664 108.804 156.664 108.804L152.725 108.514L152.64 105.032L162.747 101.213L170.673 97.4443Z" fill="#2B6CB0"/>
<path d="M158.86 140.77L156.705 147.893L153.283 147.327L154.043 139.979L158.86 140.77Z" fill="#A0616A"/>
<path d="M156.198 147.441L157.466 147.667L158.48 150.719C158.48 150.719 156.832 151.284 156.832 152.415C156.832 153.545 156.198 154.337 153.663 154.224C151.128 154.111 150.874 154.224 150.874 153.319C150.874 152.415 152.776 147.667 152.776 147.667C152.776 147.667 152.649 145.745 154.17 145.858C155.691 145.971 156.198 147.441 156.198 147.441Z" fill="#2F2E41"/>
<path d="M170.449 140.66L170.302 148.036L166.828 148.23L165.561 140.937L170.449 140.66Z" fill="#A0616A"/>
<path d="M169.687 147.707L170.978 147.651L172.794 150.392C172.794 150.392 171.35 151.298 171.659 152.394C171.967 153.491 171.568 154.396 169.078 154.836C166.588 155.277 166.373 155.442 166.126 154.564C165.88 153.687 166.429 148.669 166.429 148.669C166.429 148.669 165.781 146.832 167.288 146.612C168.794 146.391 169.687 147.707 169.687 147.707Z" fill="#2F2E41"/>
<path d="M169.002 96.5665L175.847 96.1143L177.368 97.81C177.368 97.81 178.129 109.228 177.622 110.359C177.115 111.489 177.495 117.933 177.495 117.933L160.238 116.859C164.051 114.449 165.413 111.728 164.058 108.663L163.931 103.915L167.354 98.1492L169.002 96.5665Z" fill="#2B6CB0"/>
<path d="M176.735 115.56C176.735 115.56 179.523 119.177 178.509 121.099C177.495 123.021 170.616 134.18 170.616 134.18L171.504 144.581L165.419 144.129L164.405 132.937L168.621 123.812L167.861 122.795L161.522 129.691L159.241 141.675L153.156 140.996L156.452 123.473L160.304 116.719L176.735 115.56Z" fill="#2F2E41"/>
<path d="M177.33 89.6436C178.628 89.6436 179.681 88.7052 179.681 87.5476C179.681 86.3901 178.628 85.4517 177.33 85.4517C176.032 85.4517 174.98 86.3901 174.98 87.5476C174.98 88.7052 176.032 89.6436 177.33 89.6436Z" fill="#2F2E41"/>
<path d="M171.903 95.3175C174.73 95.3175 177.021 93.2739 177.021 90.753C177.021 88.2321 174.73 86.1885 171.903 86.1885C169.076 86.1885 166.785 88.2321 166.785 90.753C166.785 93.2739 169.076 95.3175 171.903 95.3175Z" fill="#A0616A"/>
<path d="M173.526 95.7573C174.07 96.0143 175.6 95.0708 176.148 93.8066C176.5 92.9932 177.357 93.1285 177.903 92.1143C178.222 91.5232 177.271 90.9451 177.428 90.4341C177.712 89.5082 177.356 88.6798 177.31 88.5784C176.918 87.7023 176.341 87.7227 175.875 86.7031C175.594 86.0892 175.774 86.0173 175.539 85.7033C174.858 84.7969 172.884 84.7625 171.492 85.1911C171.01 85.3394 169.849 84.5446 168.907 85.1204C167.797 85.7987 167.059 87.754 167.229 88.1123C167.332 88.33 167.907 88.1082 169.102 88.2758C170.208 88.4309 168.748 89.1681 169.993 89.4195C171.466 89.7166 171.909 89.4454 172.317 89.8609C172.749 90.3001 172.828 91.189 172.435 91.7166C172.24 91.9785 171.988 92.0709 172.019 92.2531C172.077 92.5858 172.408 92.4049 172.517 92.7579C172.643 93.1684 171.594 93.7067 171.686 93.8308C171.704 93.8558 171.782 93.8829 172.807 93.5309C173.216 93.3903 173.373 93.269 173.419 93.3139C173.493 93.3866 173.861 94.1155 173.443 94.4255C172.793 94.908 173.244 95.0996 172.947 95.4775C172.642 95.8672 173.18 95.594 173.526 95.7573Z" fill="#2F2E41"/>
<path d="M172.327 122.13C171.51 123.308 170.167 123.887 169.326 123.424C168.485 122.96 168.466 121.629 169.283 120.45C169.602 119.976 170.044 119.576 170.572 119.285L174.104 114.331L176.675 115.859L172.921 120.58C172.865 121.131 172.661 121.663 172.327 122.13Z" fill="#A0616A"/>
<path d="M176.988 98.0361C176.988 98.0361 182.946 99.0536 182.439 101.654C181.932 104.254 178.731 114.85 178.731 114.85L176.101 117.481L172.932 115.446L175.594 105.95L176.988 98.0361Z" fill="#2B6CB0"/>
<path d="M86.7174 94.0251C86.8811 92.4937 86.1278 91.177 85.0349 91.0843C83.9421 90.9915 82.9238 92.1577 82.7603 93.6897C82.6856 94.3009 82.776 94.9191 83.0242 95.4927L82.4225 101.989L85.847 102.176L86.0765 95.7518C86.4417 95.2301 86.6615 94.638 86.7174 94.0251L86.7174 94.0251Z" fill="#FFB6B6"/>
<path d="M68.0605 97.1071C68.0605 97.1071 73.6551 94.1721 74.807 94.6124C75.9588 95.0526 81.5534 102.537 81.5534 102.537L82.0678 101.171L85.9963 101.509C85.9963 101.509 88.2999 111.048 83.1989 110.168C78.0979 109.287 69.706 101.069 69.706 101.069L68.0605 97.1071H68.0605Z" fill="#2B6CB0"/>
<path d="M95.9358 96.2732L88.0375 97.0069V98.5228L84.1706 98.759L81.6201 98.9146L77.8355 95.6862V91.0358L82.6074 89.5228L84.1706 89.3291L88.5311 88.7891C89.0742 89.1926 89.1421 89.9144 88.6821 90.393L88.5311 90.55L94.6194 89.6695C94.6194 89.6695 97.5813 92.0175 95.9358 96.2732Z" fill="#3F3D56"/>
<path d="M84.1706 89.3291V98.7591L81.6201 98.9146L77.8355 95.6862V91.0358L82.6074 89.5228L84.1706 89.3291Z" fill="#2F2E41"/>
<path d="M85.5433 89.3001C86.085 89.2446 86.499 89.0038 86.4678 88.7623C86.4367 88.5207 85.9724 88.3699 85.4307 88.4254C84.889 88.4809 84.4751 88.7217 84.5062 88.9632C84.5373 89.2048 85.0016 89.3556 85.5433 89.3001Z" fill="#3F3D56"/>
<path d="M81.0222 121.872L102.743 129.209C102.743 129.209 104.553 130.824 104.882 133.612C105.211 136.4 111.299 152.249 111.299 152.249L106.034 154.01C106.034 154.01 97.1479 141.83 97.6416 136.84C97.6416 136.84 96.6543 134.488 96.1606 134.417C95.667 134.346 88.2623 130.97 83.4904 131.411C78.7185 131.851 66.2128 133.172 65.8838 128.035C65.5547 122.899 68.4407 122.899 68.4407 122.899L81.0222 121.872Z" fill="#2F2E41"/>
<path d="M110.147 150.928C110.147 150.928 111.628 150.488 112.615 151.369C113.603 152.249 113.603 152.983 113.603 152.983C113.603 152.983 121.336 152.836 121.666 153.717C121.995 154.597 120.843 158.119 118.046 158.266C115.248 158.413 105.704 160.173 105.704 158.559C105.704 156.945 105.869 153.276 106.527 153.276C107.185 153.276 110.147 150.928 110.147 150.928Z" fill="#2F2E41"/>
<path d="M82.8984 126.54L98.729 141.697C98.729 141.697 99.5503 143.859 98.4608 146.489C97.3713 149.118 94.9598 165.733 94.9598 165.733L89.3644 165.232C89.3644 165.232 87.446 150.802 90.3662 146.524C90.3662 146.524 90.6493 144.024 90.242 143.766C89.8346 143.507 84.8717 137.556 80.3747 136.067C75.8776 134.577 64.0093 130.822 66.2648 126.087C68.5202 121.352 71.1078 122.491 71.1078 122.491L82.8984 126.54Z" fill="#2F2E41"/>
<path d="M94.583 164.094C94.583 164.094 96.1294 164.284 96.5773 165.463C97.0253 166.643 96.6609 167.301 96.6609 167.301C96.6609 167.301 103.668 170.223 103.526 171.143C103.384 172.062 100.602 174.765 98.0209 173.792C95.44 172.819 86.0087 170.628 86.8103 169.181C87.6118 167.734 89.5812 164.509 90.1713 164.769C90.7614 165.029 94.583 164.094 94.583 164.094H94.583Z" fill="#2F2E41"/>
<path d="M68.4342 95.3843L73.6998 98.466L79.6235 106.537C79.6235 106.537 80.9399 115.048 80.4463 115.489C79.9526 115.929 80.1172 116.369 80.1172 117.25C80.1172 118.13 81.326 118.224 80.557 118.984C79.7881 119.744 79.1428 119.903 80.2882 120.19C81.4336 120.478 82.7642 120.197 82.0989 121.071C81.4336 121.945 81.9272 122.239 81.5981 122.532C81.269 122.826 67.9475 135.373 65.4793 130.531C63.0111 125.688 62.8396 107.124 62.8396 107.124L64.6177 101.077L68.4342 95.3843Z" fill="#2B6CB0"/>
<path d="M52.2105 129.957C51.6502 131.647 52.1737 133.274 53.3795 133.592C54.5853 133.91 56.0166 132.798 56.5768 131.108C56.811 130.435 56.8612 129.722 56.7232 129.029L58.9958 121.843L55.1918 120.964L53.3553 128.141C52.8166 128.656 52.424 129.279 52.2105 129.957H52.2105Z" fill="#FFB6B6"/>
<path d="M73.8752 105.59C73.8752 105.59 67.7423 101.414 65.4077 104.047C63.0731 106.681 54.5209 118.371 54.5209 118.371L53.9539 122.825L58.8042 123.78L66.6437 113.478L73.8752 105.59Z" fill="#2B6CB0"/>
<path d="M73.9371 94.1321C77.1989 94.1321 79.8431 91.774 79.8431 88.8651C79.8431 85.9563 77.1989 83.5981 73.9371 83.5981C70.6754 83.5981 68.0312 85.9563 68.0312 88.8651C68.0312 91.774 70.6754 94.1321 73.9371 94.1321Z" fill="#FFB6B6"/>
<path d="M67.2795 97.1141C68.658 98.8677 69.3629 101.034 69.251 103.174C70.8139 102.498 71.8687 101.072 72.2277 99.5567C72.5868 98.0414 72.3129 96.4504 71.736 94.9896L71.7186 94.9458C70.8426 92.7532 71.6565 90.3026 73.7722 88.9397C75.1993 88.0203 76.437 86.8669 77.3869 85.5447C77.9232 84.7983 78.3791 83.862 77.9784 83.0508C77.6093 82.3032 76.6556 81.9538 75.7779 81.72C73.7739 81.1861 71.6446 80.8824 69.5877 81.2202C67.5308 81.558 65.5507 82.6129 64.5785 84.2644C63.6064 85.9159 63.8611 88.1698 65.439 89.3941C64.9413 89.5376 64.5892 90.0081 64.6315 90.473C64.6737 90.9379 65.1062 91.3516 65.6233 91.4217C65.2859 91.4111 65.0868 91.8073 65.2071 92.0886C65.3274 92.3699 65.6377 92.5446 65.9336 92.6894C66.3552 92.8956 66.8226 93.1113 66.8244 93.6514C66.8251 93.8679 66.7385 94.0781 66.597 94.2541C66.2542 94.6806 65.7007 94.8727 65.1679 95.053C66.2948 95.349 67.1935 96.2473 67.3952 97.2794" fill="#2F2E41"/>
</g>
<defs>
<clipPath id="clip0_76_1571">
<rect width="253" height="174" fill="white"/>
</clipPath>
</defs>
</svg>
